<?xml version="1.0" encoding="UTF-8"?>
<svg xmlns="http://www.w3.org/2000/svg" xmlns:xlink="http://www.w3.org/1999/xlink" width="384px" height="384px" viewBox="0 0 384 384" version="1.1">
<g id="surface1">
<path style=" stroke:none;fill-rule:evenodd;fill:rgb(79.215688%,77.254903%,70.588237%);fill-opacity:1;" d="M 58.207031 24.917969 C 54.863281 28.667969 54.550781 29.492188 56.097656 30.496094 C 56.644531 30.855469 57.09375 32.277344 57.09375 33.660156 C 57.09375 35.042969 57.71875 36.550781 58.484375 37.011719 C 59.246094 37.476562 60.035156 38.800781 60.242188 39.957031 C 60.457031 41.171875 61.550781 42.199219 62.847656 42.394531 C 65.714844 42.824219 65.722656 41.070312 62.867188 38.964844 C 61.644531 38.066406 60.925781 37.328125 61.261719 37.328125 C 61.601562 37.328125 61.523438 35.671875 61.089844 33.648438 C 60.65625 31.628906 60.679688 28.210938 61.140625 26.0625 C 61.601562 23.910156 61.828125 21.988281 61.640625 21.792969 C 61.457031 21.597656 59.910156 23.003906 58.207031 24.917969 M 325.292969 29.390625 C 325.292969 35.617188 324.910156 37.566406 323.296875 39.476562 C 321.292969 41.847656 312.382812 46.527344 299.324219 52.058594 C 284.160156 58.484375 284.789062 58.066406 285.839844 60.976562 C 286.613281 63.117188 286.484375 63.601562 285.144531 63.601562 C 284.238281 63.601562 282.714844 62.855469 281.761719 61.945312 C 280.167969 60.425781 278.792969 60.789062 264.953125 66.363281 C 256.660156 69.703125 249.878906 72.785156 249.878906 73.214844 C 249.878906 74.503906 263.011719 89.871094 264.113281 89.871094 C 265.300781 89.871094 292.964844 72.71875 294.992188 70.726562 C 295.746094 69.984375 297.925781 68.460938 299.839844 67.34375 C 301.753906 66.222656 308.140625 62.011719 314.035156 57.984375 C 323.417969 51.574219 324.542969 50.503906 323.058594 49.363281 C 321.605469 48.242188 321.820312 48.117188 324.570312 48.453125 C 328.167969 48.894531 330.433594 46.308594 331.816406 40.191406 L 332.582031 36.804688 L 332.683594 39.832031 C 332.824219 44.015625 329.675781 48.917969 324.851562 52.027344 C 322.625 53.460938 320.800781 55 320.800781 55.441406 C 320.800781 55.882812 320.363281 56.242188 319.824219 56.242188 C 319.289062 56.242188 313.648438 59.828125 307.285156 64.210938 C 297.445312 70.992188 295.90625 72.414062 296.964844 73.757812 C 297.648438 74.625 298.269531 76.238281 298.347656 77.339844 C 298.476562 79.195312 298.257812 79.160156 295.398438 76.863281 L 292.308594 74.382812 L 282.332031 81.152344 C 276.84375 84.875 271.738281 88.289062 270.992188 88.742188 C 269.921875 89.386719 269.875 90.046875 270.777344 91.820312 C 272.15625 94.53125 271.101562 94.824219 269.285156 92.238281 C 268.300781 90.832031 267.710938 90.6875 266.8125 91.621094 C 265.90625 92.5625 266.253906 93.703125 268.308594 96.539062 L 270.984375 100.234375 L 277.386719 95.839844 C 280.90625 93.425781 288.40625 88.085938 294.050781 83.980469 C 302.71875 77.671875 304.273438 76.117188 304.035156 73.996094 C 303.78125 71.703125 303.875 71.640625 305.125 73.289062 C 306.378906 74.949219 307.300781 74.484375 316.390625 67.640625 C 335.242188 53.449219 336.78125 51.503906 336.78125 41.84375 C 336.78125 36.226562 333.628906 29.875 328.175781 24.511719 L 325.292969 21.675781 L 325.292969 29.390625 M 117.511719 35.582031 C 118.464844 37.109375 119.613281 38.121094 120.066406 37.828125 C 120.515625 37.535156 121.210938 37.847656 121.609375 38.523438 C 122.058594 39.292969 121.898438 39.472656 121.179688 39.003906 C 120.542969 38.59375 120.023438 38.507812 120.023438 38.820312 C 120.023438 39.128906 124.007812 46.128906 128.875 54.378906 L 137.726562 69.378906 L 146.355469 69.683594 C 151.101562 69.851562 154.984375 69.738281 154.984375 69.433594 C 154.984375 69.132812 153.101562 65.574219 150.800781 61.535156 C 146.902344 54.683594 145.664062 53.496094 132.574219 44.054688 C 116.378906 32.375 115.050781 31.628906 117.511719 35.582031 M 256.589844 42.578125 C 255.820312 43.726562 254.839844 44.320312 254.410156 43.890625 C 253.980469 43.460938 253.972656 44.285156 254.394531 45.726562 C 255.066406 48.023438 254.96875 48.175781 253.59375 46.976562 C 250.96875 44.6875 241.792969 51.886719 236.855469 60.105469 C 234.636719 63.804688 233.089844 67.28125 233.417969 67.839844 C 233.746094 68.398438 233.238281 68.855469 232.289062 68.855469 C 231.34375 68.855469 230.855469 69.160156 231.210938 69.53125 C 231.5625 69.90625 235.253906 70.378906 239.414062 70.585938 C 246.425781 70.933594 247.15625 70.765625 249.523438 68.269531 C 251.152344 66.558594 251.894531 64.84375 251.570312 63.542969 C 251.265625 62.3125 251.570312 61.5 252.324219 61.5 C 254.140625 61.5 261.074219 49.84375 260.542969 47.695312 C 260.238281 46.484375 260.546875 46.074219 261.480469 46.453125 C 263.304688 47.1875 263.234375 45.710938 261.308594 42.816406 C 259.390625 39.933594 258.382812 39.882812 256.589844 42.578125 M 163.921875 50.316406 C 164.414062 51.679688 167.582031 58.65625 170.964844 65.816406 C 176.578125 77.714844 176.835938 78.539062 173.921875 75.347656 C 170.84375 71.976562 170.519531 71.875 164.609375 72.390625 C 161.238281 72.683594 154.480469 72.953125 149.585938 72.992188 L 140.695312 73.058594 L 136.933594 77.339844 C 134.867188 79.699219 131.964844 83.460938 130.484375 85.707031 C 128.015625 89.460938 127.925781 89.929688 129.402344 91.484375 C 130.289062 92.414062 131.011719 93.574219 131.011719 94.058594 C 131.011719 94.546875 135.707031 97.761719 141.445312 101.203125 L 151.875 107.460938 L 154.546875 100.84375 L 157.222656 94.226562 L 154.933594 90.734375 L 152.648438 87.246094 L 158.601562 93.035156 L 174.023438 90.820312 C 185.292969 89.199219 191.910156 88.777344 198.597656 89.253906 C 205.507812 89.742188 207.875 89.574219 208.257812 88.574219 C 208.605469 87.664062 208.792969 87.753906 208.847656 88.855469 C 208.90625 90.097656 211.152344 90.746094 218.660156 91.683594 C 228.023438 92.855469 228.484375 92.816406 230.648438 90.679688 C 231.886719 89.457031 232.898438 88.953125 232.898438 89.558594 C 232.898438 90.167969 232.222656 91.253906 231.398438 91.972656 C 229.527344 93.605469 229.515625 95.035156 231.339844 98.90625 C 232.128906 100.582031 233.238281 103.25 233.804688 104.832031 L 234.835938 107.707031 L 247.441406 100 C 254.375 95.765625 260.054688 91.945312 260.066406 91.519531 C 260.082031 91.085938 257.273438 86.972656 253.828125 82.375 C 249.835938 77.039062 247.0625 74.214844 246.171875 74.574219 C 245.40625 74.882812 245.054688 74.667969 245.390625 74.097656 C 245.769531 73.449219 243.300781 73.058594 238.832031 73.058594 C 232.15625 73.058594 231.703125 73.203125 232.1875 75.160156 C 232.855469 77.839844 231.238281 77.933594 230.429688 75.261719 C 229.945312 73.648438 228.457031 73.117188 222.695312 72.507812 L 215.558594 71.757812 L 212.769531 75.296875 C 211.234375 77.246094 209.964844 78.480469 209.949219 78.042969 C 209.9375 77.605469 212.765625 71.457031 216.242188 64.382812 C 225.226562 46.078125 225.070312 47.382812 218.1875 48.367188 C 215.015625 48.824219 204.328125 49.324219 194.441406 49.484375 C 184.550781 49.644531 175.851562 49.8125 175.105469 49.859375 C 174.257812 49.910156 173.980469 50.628906 174.359375 51.777344 C 174.902344 53.417969 174.832031 53.4375 173.714844 51.960938 C 173.027344 51.050781 171.003906 50.265625 169.21875 50.21875 C 164.398438 50.089844 164.078125 49.75 167.972656 48.886719 L 171.46875 48.113281 L 167.246094 47.976562 C 163.207031 47.84375 163.0625 47.941406 163.921875 50.316406 M 235.132812 49.351562 C 233.886719 49.957031 233.085938 51.042969 233.351562 51.769531 C 233.617188 52.496094 233.472656 54.109375 233.035156 55.359375 L 232.238281 57.632812 L 230.59375 55.164062 L 228.953125 52.703125 L 226.433594 55.785156 C 223.796875 59.011719 223.578125 59.632812 223.839844 63.074219 C 223.957031 64.644531 223.769531 64.820312 223.089844 63.769531 C 222.402344 62.703125 221.667969 63.238281 220.046875 65.996094 C 218.875 67.992188 217.914062 69.8125 217.914062 70.035156 C 217.914062 70.257812 220.304688 70.582031 223.222656 70.75 L 228.53125 71.054688 L 233.359375 59.953125 C 236.015625 53.847656 238.007812 48.714844 237.789062 48.550781 C 237.570312 48.390625 236.375 48.75 235.132812 49.351562 M 149.273438 50.203125 C 149.546875 50.925781 151.679688 55.890625 154.015625 61.234375 L 158.265625 70.957031 L 163.617188 70.957031 C 166.5625 70.957031 168.960938 70.601562 168.949219 70.167969 C 168.878906 67.65625 159.28125 54.253906 155.777344 51.777344 C 151.464844 48.730469 148.441406 47.996094 149.273438 50.203125 M 85.0625 53.257812 C 85.0625 53.742188 83.941406 54.140625 82.566406 54.140625 C 81.101562 54.140625 80.171875 54.6875 80.320312 55.457031 C 80.464844 56.214844 79.617188 56.734375 78.320312 56.6875 C 76.875 56.632812 76.074219 57.214844 76.074219 58.324219 C 76.074219 59.582031 76.878906 59.984375 79.070312 59.824219 C 81.5625 59.640625 82.066406 60 82.066406 61.9375 C 82.066406 63.683594 83.882812 65.488281 89.308594 69.125 C 93.324219 71.820312 96.71875 73.476562 96.929688 72.851562 C 97.136719 72.226562 96.574219 71.285156 95.679688 70.757812 C 93.484375 69.464844 93.621094 67.804688 95.929688 67.804688 C 98.410156 67.804688 100.660156 70.519531 98.839844 71.320312 C 97.902344 71.730469 98.058594 72.21875 99.417969 73.121094 C 100.878906 74.085938 101 74.539062 99.96875 75.210938 C 99.046875 75.8125 99.53125 76.28125 101.597656 76.789062 C 103.214844 77.1875 105.117188 78.273438 105.816406 79.203125 C 106.957031 80.710938 110.066406 82.808594 119.367188 88.335938 C 120.925781 89.265625 122.777344 89.792969 123.480469 89.507812 C 124.867188 88.949219 137.457031 73.113281 136.867188 72.671875 C 136.667969 72.523438 126.390625 68.175781 114.03125 63.007812 C 92.050781 53.824219 85.0625 51.472656 85.0625 53.257812 M 329.109375 61.308594 C 326.566406 63.402344 320.089844 82.792969 321.738281 83.371094 C 323.5625 84.011719 322.890625 85.496094 321.011719 84.980469 C 319.722656 84.625 318.75 85.546875 317.503906 88.296875 C 315.964844 91.695312 315.9375 92.34375 317.261719 94.335938 C 318.683594 96.464844 318.96875 96.078125 323.726562 85.597656 C 327.945312 76.300781 332.621094 60.976562 331.570312 59.871094 C 331.398438 59.6875 330.292969 60.335938 329.109375 61.308594 M 70.082031 66.785156 C 70.082031 68.378906 83.890625 77.5 85.101562 76.710938 C 85.890625 76.199219 86.152344 76.433594 85.84375 77.378906 C 85.339844 78.917969 101.320312 90.835938 103.960938 90.894531 C 104.738281 90.910156 105.078125 91.234375 104.71875 91.613281 C 104.355469 91.992188 106.636719 94.085938 109.785156 96.261719 L 115.511719 100.222656 L 118.226562 96.886719 C 119.71875 95.050781 120.960938 93.257812 120.984375 92.902344 C 121.03125 92.152344 114.972656 87.824219 110.386719 85.332031 C 107.355469 83.683594 107.257812 83.695312 107.753906 85.695312 C 108.4375 88.445312 106.019531 88.425781 103.773438 85.667969 C 102.34375 83.910156 102.308594 83.566406 103.554688 83.566406 C 106.472656 83.566406 104.957031 81.382812 99.488281 77.703125 C 95.847656 75.25 92.839844 74.007812 90.75 74.085938 C 83.164062 74.378906 80.574219 73.960938 77.472656 71.941406 C 75.582031 70.714844 74.394531 69.207031 74.683594 68.410156 C 75 67.542969 74.230469 66.828125 72.636719 66.507812 C 71.230469 66.222656 70.082031 66.351562 70.082031 66.785156 M 69.210938 74.710938 C 69.464844 75.246094 70.152344 76.867188 70.738281 78.3125 C 71.324219 79.757812 72.570312 82.832031 73.511719 85.144531 C 76.910156 93.492188 85.292969 105.378906 88.769531 106.769531 C 90.09375 107.300781 90.925781 108.164062 90.617188 108.6875 C 90.050781 109.648438 98.8125 118.527344 102.214844 120.441406 C 103.707031 121.285156 104.042969 121.078125 104.042969 119.332031 C 104.042969 118.15625 104.496094 117.195312 105.046875 117.195312 C 105.625 117.195312 105.992188 114.453125 105.910156 110.71875 C 105.777344 104.558594 105.570312 104.039062 101.660156 100.214844 C 99.398438 98.003906 96.964844 96.417969 96.25 96.699219 C 95.535156 96.976562 95.183594 96.804688 95.472656 96.3125 C 96.136719 95.183594 80.070312 82.941406 78.4375 83.332031 C 77.769531 83.492188 76.96875 82.78125 76.65625 81.753906 C 76.347656 80.726562 74.4375 78.503906 72.417969 76.8125 C 70.398438 75.121094 68.957031 74.175781 69.210938 74.710938 M 312.605469 78.152344 C 310.019531 80.261719 307.882812 82.582031 307.859375 83.304688 C 307.835938 84.027344 307.121094 84.617188 306.273438 84.617188 C 305.425781 84.617188 302.207031 86.628906 299.125 89.082031 C 296.039062 91.539062 291.675781 94.882812 289.425781 96.511719 C 282.21875 101.730469 281.070312 103.6875 280.972656 110.925781 C 280.925781 114.496094 281.347656 118.320312 281.910156 119.425781 C 282.886719 121.347656 283.113281 121.300781 287.132812 118.378906 C 292.414062 114.535156 303.40625 102.503906 307.722656 95.835938 C 310.988281 90.800781 318.242188 75.261719 317.625 74.636719 C 317.449219 74.457031 315.1875 76.039062 312.605469 78.152344 M 60.09375 78.3125 C 60.09375 78.890625 60.570312 79.363281 61.15625 79.363281 C 61.792969 79.363281 61.949219 80.273438 61.542969 81.617188 C 60.964844 83.535156 61.183594 83.785156 62.988281 83.289062 C 64.480469 82.878906 65.441406 83.351562 66.214844 84.871094 C 67.140625 86.695312 67.058594 86.933594 65.703125 86.386719 C 63.546875 85.515625 63.667969 86.988281 66.183594 92.175781 C 67.628906 95.160156 68.523438 96.078125 69.066406 95.152344 C 69.503906 94.410156 70.359375 94.132812 70.96875 94.527344 C 72.847656 95.75 72.195312 92.503906 70.082031 90.113281 C 68.980469 88.875 68.082031 87.195312 68.082031 86.386719 C 68.082031 84.964844 61.8125 77.261719 60.660156 77.261719 C 60.347656 77.261719 60.09375 77.734375 60.09375 78.3125 M 173.964844 92.097656 C 170.394531 92.601562 165.945312 93.285156 164.082031 93.621094 L 160.6875 94.226562 L 163.640625 96.117188 C 168.152344 99.003906 173.722656 106.429688 175.425781 111.824219 C 177.675781 118.957031 180.226562 141.007812 179.574219 147.671875 C 179.265625 150.847656 178.332031 155.578125 177.503906 158.179688 C 176.5625 161.121094 176.175781 161.71875 176.472656 159.753906 C 176.734375 158.019531 177.234375 153.507812 177.582031 149.722656 C 178.167969 143.363281 178.023438 142.613281 175.652344 139.738281 C 173.300781 136.890625 172.957031 136.773438 171.46875 138.316406 C 169.96875 139.867188 170.007812 140.332031 171.992188 144.332031 C 173.902344 148.1875 174.019531 149.261719 173.054688 154 C 172.453125 156.933594 171.292969 160.707031 170.46875 162.382812 C 169.644531 164.058594 168.972656 166.046875 168.980469 166.796875 C 168.984375 167.546875 172.242188 170.175781 176.214844 172.636719 L 183.445312 177.109375 L 193.6875 176.964844 C 203.917969 176.820312 203.941406 176.8125 211.347656 172.179688 L 218.757812 167.535156 L 216.386719 162.070312 C 212.816406 153.847656 212.40625 149.003906 214.863281 144.03125 C 216.726562 140.253906 216.773438 139.714844 215.355469 138.25 C 213.945312 136.792969 213.539062 136.941406 211.230469 139.742188 C 208.835938 142.640625 208.707031 143.339844 209.292969 150.25 C 209.636719 154.320312 210.132812 159.070312 210.402344 160.804688 C 210.699219 162.730469 210.304688 162.117188 209.386719 159.230469 C 206.894531 151.394531 206.550781 140.882812 208.363281 128.042969 C 210.519531 112.777344 211.21875 110.40625 215.5 103.863281 C 218.011719 100.023438 218.886719 97.75 218.429688 96.234375 C 218.050781 94.976562 218.226562 94.074219 218.847656 94.074219 C 219.433594 94.074219 219.914062 94.785156 219.914062 95.652344 C 219.914062 97.613281 220.976562 97.652344 223.414062 95.777344 C 225.140625 94.449219 224.933594 94.269531 220.855469 93.609375 C 218.414062 93.210938 214.890625 92.613281 213.023438 92.285156 C 210.632812 91.859375 209.839844 92.035156 210.335938 92.878906 C 211.34375 94.59375 210.046875 94.355469 208.28125 92.5 C 207.457031 91.632812 205.503906 90.921875 203.9375 90.921875 C 200.492188 90.921875 200.417969 91.21875 198.933594 110.890625 C 197.566406 129.019531 193.960938 163.765625 193.382812 164.371094 C 193.140625 164.625 192.941406 164.152344 192.941406 163.316406 C 192.941406 162.484375 192.503906 158.03125 191.964844 153.421875 C 190.703125 142.574219 188.160156 116.628906 187.441406 107.210938 C 187.132812 103.164062 186.640625 97.84375 186.351562 95.390625 C 185.757812 90.335938 186.003906 90.402344 173.964844 92.097656 M 187.949219 92.585938 C 187.949219 97.25 192.167969 142.328125 192.855469 145.042969 C 193.644531 148.132812 193.671875 148.101562 194.316406 143.464844 C 195.007812 138.476562 198.9375 95.121094 198.9375 92.472656 C 198.9375 91.292969 197.617188 90.921875 193.441406 90.921875 C 189.09375 90.921875 187.949219 91.269531 187.949219 92.585938 M 120.777344 99.246094 L 117.109375 104.417969 L 121.3125 106.714844 C 138.46875 116.097656 172.988281 135.75 175.304688 137.457031 L 178.148438 139.546875 L 177.429688 132.3125 C 177.039062 128.332031 176.535156 124.75 176.316406 124.351562 C 175.738281 123.296875 153.25 110.59375 152.417969 110.851562 C 152.03125 110.96875 151.4375 110.644531 151.101562 110.121094 C 150.339844 108.941406 128.707031 95.5 126.25 94.675781 C 124.921875 94.234375 123.480469 95.433594 120.777344 99.246094 M 248.378906 101.589844 C 241.789062 105.671875 236.167969 109.320312 235.894531 109.6875 C 235.621094 110.058594 234.867188 110.46875 234.222656 110.597656 C 232.632812 110.917969 211.074219 123.441406 210.546875 124.351562 C 210.316406 124.75 209.796875 128.386719 209.394531 132.433594 C 208.683594 139.578125 208.714844 139.738281 210.542969 138.050781 C 211.574219 137.09375 215.117188 134.832031 218.414062 133.023438 C 221.710938 131.214844 225.082031 129.296875 225.90625 128.761719 C 226.730469 128.226562 236.519531 122.738281 247.65625 116.566406 C 258.792969 110.398438 268.160156 104.921875 268.46875 104.398438 C 269.132812 103.265625 262.804688 94.136719 261.367188 94.152344 C 260.816406 94.15625 254.972656 97.503906 248.378906 101.589844 M 156.09375 99.59375 C 152.445312 108.558594 151.945312 107.605469 164.117188 114.882812 C 170.210938 118.523438 175.449219 121.238281 175.757812 120.914062 C 176.644531 119.980469 172.941406 108.59375 170.621094 105.109375 C 167.757812 100.804688 161.132812 95.277344 158.695312 95.164062 C 158.265625 95.144531 157.09375 97.136719 156.09375 99.59375 M 221.65625 99.066406 C 219.695312 100.65625 216.960938 103.765625 215.585938 105.976562 C 213.109375 109.953125 210.210938 119.949219 211.222656 121.011719 C 211.605469 121.417969 231.476562 110.128906 233.683594 108.253906 C 233.839844 108.121094 233.078125 105.707031 231.988281 102.882812 C 230.898438 100.0625 229.984375 98.640625 229.957031 99.722656 C 229.910156 101.351562 229.640625 101.464844 228.402344 100.378906 C 227.578125 99.660156 226.90625 98.421875 226.90625 97.625 C 226.90625 95.492188 225.648438 95.835938 221.65625 99.066406 M 310.90625 99.414062 C 309.378906 101.589844 308.914062 103.273438 309.398438 104.875 C 309.972656 106.769531 309.84375 106.976562 308.707031 106.007812 C 307.59375 105.058594 305.960938 106.480469 300.570312 113.097656 C 296.863281 117.652344 293.820312 122.207031 293.8125 123.226562 C 293.800781 124.597656 293.585938 124.726562 292.976562 123.714844 C 292.316406 122.613281 291.917969 122.648438 290.941406 123.886719 C 289.953125 125.136719 290.101562 125.550781 291.742188 126.097656 C 292.847656 126.464844 294.570312 126.308594 295.566406 125.75 C 298.644531 124.015625 316.761719 101.273438 316.792969 99.105469 C 316.796875 98.691406 315.972656 97.886719 314.957031 97.3125 C 313.464844 96.472656 312.691406 96.875 310.90625 99.414062 M 73.078125 101.429688 C 73.078125 102.585938 73.527344 103.535156 74.078125 103.535156 C 74.625 103.535156 75.074219 104.382812 75.074219 105.425781 C 75.074219 107.90625 76.957031 109.820312 78.707031 109.113281 C 79.46875 108.804688 80.765625 109.136719 81.582031 109.851562 C 82.398438 110.5625 83.050781 110.734375 83.035156 110.230469 C 82.976562 108.585938 80.625 106.160156 77.820312 104.855469 C 76.132812 104.070312 75.074219 102.761719 75.074219 101.453125 C 75.074219 100.285156 74.625 99.328125 74.078125 99.328125 C 73.527344 99.328125 73.078125 100.277344 73.078125 101.429688 M 55.597656 108.511719 C 53.949219 108.765625 52.058594 109.445312 51.394531 110.023438 C 50.734375 110.597656 49.769531 110.796875 49.253906 110.460938 C 48.738281 110.125 46.585938 110.492188 44.464844 111.273438 C 42.347656 112.054688 38.476562 113.023438 35.871094 113.429688 C 33.261719 113.839844 31.125 114.671875 31.125 115.289062 C 31.125 115.964844 32.28125 116.164062 34.050781 115.789062 C 35.660156 115.453125 37.128906 115.648438 37.3125 116.230469 C 37.671875 117.363281 53.023438 121.828125 53.789062 121.023438 C 54.042969 120.757812 54.367188 119.695312 54.511719 118.660156 C 54.886719 115.953125 56.15625 115.867188 59.933594 118.292969 C 62.101562 119.683594 63.070312 120.980469 62.699219 122 C 62.132812 123.554688 62.746094 123.945312 69.582031 126.378906 C 71.230469 126.964844 73.476562 127.832031 74.574219 128.308594 C 75.886719 128.871094 75.023438 127.265625 72.078125 123.644531 C 69.605469 120.605469 66.96875 116.90625 66.222656 115.425781 C 65.1875 113.382812 64.65625 113.070312 64.03125 114.140625 C 63.421875 115.175781 62.925781 114.78125 62.148438 112.625 C 61.566406 111.015625 61.089844 109.257812 61.089844 108.71875 C 61.089844 107.71875 60.832031 107.707031 55.597656 108.511719 M 320.324219 115.71875 C 317.183594 120.109375 313.71875 124.640625 312.628906 125.789062 C 309.976562 128.578125 310.769531 129.101562 314.902344 127.292969 C 316.769531 126.472656 323.921875 124.265625 330.789062 122.386719 C 337.65625 120.503906 343.792969 118.300781 344.425781 117.492188 C 345.0625 116.679688 345.835938 116.457031 346.152344 116.992188 C 346.761719 118.035156 355.757812 116.292969 355.757812 115.128906 C 355.757812 114.507812 329.554688 107.730469 327.164062 107.734375 C 326.542969 107.734375 323.464844 111.328125 320.324219 115.71875 M 113.636719 115.824219 C 109.84375 120.722656 107.535156 122.566406 101.921875 125.1875 C 98.074219 126.980469 94.90625 128.847656 94.882812 129.335938 C 94.859375 129.820312 97.023438 131.46875 99.691406 132.992188 C 102.359375 134.519531 105.960938 136.671875 107.699219 137.777344 C 109.433594 138.882812 119.996094 145.175781 131.171875 151.761719 C 142.34375 158.34375 153.246094 164.960938 155.394531 166.46875 C 161.042969 170.425781 162.925781 175.546875 162.96875 187.078125 C 162.992188 192.773438 163.347656 195.96875 163.867188 195.109375 C 164.464844 194.117188 164.929688 194.035156 165.40625 194.847656 C 165.882812 195.652344 174.945312 196.011719 195 196.011719 L 223.90625 196.011719 L 223.90625 186.773438 C 223.90625 179.285156 224.332031 176.65625 226.15625 172.859375 C 228.605469 167.761719 227.730469 168.367188 260.867188 148.75 C 269.929688 143.382812 279.746094 137.515625 282.679688 135.710938 C 285.609375 133.90625 288.894531 131.902344 289.984375 131.25 C 292.902344 129.503906 292.089844 128.523438 285.179688 125.457031 C 279.140625 122.777344 268.855469 113.4375 268.855469 110.636719 C 268.855469 109.996094 267.734375 110.582031 266.359375 111.941406 C 264.324219 113.953125 263.863281 115.40625 263.863281 119.816406 C 263.863281 131.101562 257.722656 141.199219 247.972656 145.953125 C 245.324219 147.242188 243.40625 148.871094 243.46875 149.773438 C 243.53125 150.683594 243.402344 150.792969 243.160156 150.035156 C 242.90625 149.234375 240.90625 148.714844 238.070312 148.710938 C 235.5 148.703125 231.777344 148.417969 229.800781 148.070312 C 226.480469 147.496094 226.027344 147.742188 223.964844 151.25 C 222.734375 153.34375 221.324219 156.347656 220.832031 157.929688 C 220.035156 160.484375 219.992188 160.394531 220.460938 157.128906 C 220.753906 155.105469 221.070312 152.621094 221.164062 151.609375 C 221.261719 150.601562 221.871094 149.773438 222.515625 149.773438 C 224.5 149.773438 224.871094 146.902344 223.089844 145.355469 C 218.152344 141.070312 218.144531 141.066406 216.324219 143.992188 C 214.101562 147.5625 214.328125 152.976562 217.023438 160.570312 C 218.796875 165.574219 219.503906 166.53125 221.042969 166.015625 C 223.277344 165.269531 223.316406 165.625 221.515625 170.15625 C 220.546875 172.601562 218.4375 174.675781 214.527344 177.03125 C 211.445312 178.882812 208.925781 180.839844 208.925781 181.375 C 208.925781 182.894531 210.105469 182.542969 214.417969 179.75 C 216.617188 178.324219 218.976562 177.144531 219.664062 177.128906 C 222.867188 177.042969 220.105469 179.554688 211.109375 184.917969 C 201.511719 190.632812 201.140625 190.753906 193.441406 190.753906 C 185.742188 190.753906 185.375 190.632812 175.777344 184.917969 C 170.382812 181.703125 165.972656 178.628906 165.972656 178.085938 C 165.972656 176.515625 167.453125 176.902344 172.113281 179.710938 C 176.835938 182.550781 177.960938 182.867188 177.960938 181.375 C 177.960938 180.839844 175.4375 178.882812 172.359375 177.03125 C 168.445312 174.675781 166.339844 172.601562 165.367188 170.15625 C 163.578125 165.65625 163.613281 165.273438 165.730469 165.980469 C 167.128906 166.445312 167.949219 165.320312 169.726562 160.492188 C 172.433594 153.152344 172.621094 146.648438 170.21875 143.542969 L 168.46875 141.28125 L 161.648438 147.289062 L 163.796875 150.371094 C 164.980469 152.0625 166.183594 155.105469 166.476562 157.128906 L 167.011719 160.804688 L 165.539062 156.851562 C 162.429688 148.484375 161.96875 148.195312 151.71875 148.195312 C 140.992188 148.195312 137.179688 146.679688 130.847656 139.898438 C 125.304688 133.960938 123.945312 130.769531 123.128906 121.761719 C 122.609375 116.042969 121.886719 113.433594 120.390625 111.859375 L 118.363281 109.722656 L 113.636719 115.824219 M 88.582031 117.71875 C 90.707031 124.257812 91.359375 125.441406 93.117188 125.921875 C 94.179688 126.214844 95.316406 126.007812 95.636719 125.457031 C 96.394531 124.164062 94.210938 121.398438 92.433594 121.398438 C 91.675781 121.398438 91.058594 121.015625 91.058594 120.546875 C 91.058594 120.082031 90.347656 118.78125 89.476562 117.65625 C 87.917969 115.648438 87.90625 115.648438 88.582031 117.71875 M 138.753906 119.375 C 139.441406 120.140625 140.003906 121.804688 140.003906 123.070312 C 140.003906 124.339844 140.707031 125.660156 141.5625 126.007812 C 142.421875 126.355469 142.863281 127.082031 142.546875 127.625 C 142.226562 128.164062 142.535156 128.996094 143.234375 129.46875 C 144.613281 130.410156 157.976562 130.679688 157.980469 129.769531 C 157.980469 129.222656 140.898438 119.160156 138.640625 118.375 C 137.902344 118.121094 137.941406 118.46875 138.753906 119.375 M 238.140625 123.753906 C 233.0625 126.691406 228.902344 129.375 228.902344 129.714844 C 228.90625 130.054688 232.089844 130.332031 235.980469 130.332031 C 242.210938 130.332031 243.285156 130.035156 244.96875 127.847656 C 246.019531 126.484375 246.882812 124.332031 246.882812 123.066406 C 246.882812 121.804688 247.421875 120.199219 248.082031 119.507812 C 250.316406 117.152344 247.40625 118.398438 238.140625 123.753906 M 126.023438 122.582031 C 126.03125 128.589844 127.988281 133.972656 131.757812 138.363281 C 137.136719 144.625 142.21875 147.039062 150.15625 147.097656 C 153.816406 147.121094 157.140625 146.800781 157.539062 146.382812 C 158.953125 144.898438 155.941406 142.742188 150.753906 141.515625 C 147.863281 140.832031 143.140625 138.855469 140.257812 137.125 C 136.015625 134.570312 134.464844 132.816406 132.097656 127.886719 C 130.492188 124.539062 128.464844 121.175781 127.597656 120.417969 C 126.210938 119.207031 126.019531 119.472656 126.023438 122.582031 M 258.367188 121.5625 C 257.269531 122.917969 255.277344 126.3125 253.941406 129.105469 C 251.101562 135.035156 244.554688 139.578125 236.222656 141.402344 C 231.40625 142.453125 227.890625 144.851562 229.175781 146.207031 C 230.667969 147.773438 238.121094 147.75 243.320312 146.160156 C 253.734375 142.976562 261.621094 132.179688 260.683594 122.394531 L 260.367188 119.101562 L 258.367188 121.5625 M 89.242188 131.964844 C 87.410156 132.738281 87.070312 133.441406 87.625 135.316406 C 88.308594 137.632812 88.28125 137.644531 86.289062 135.773438 C 84.320312 133.925781 84.113281 133.929688 79.914062 135.882812 C 77.527344 136.996094 74.796875 138.191406 73.84375 138.542969 C 72.789062 138.933594 72.34375 139.816406 72.703125 140.800781 C 73.027344 141.6875 72.832031 142.414062 72.269531 142.414062 C 71.707031 142.414062 71.074219 141.875 70.863281 141.214844 C 70.582031 140.324219 69.511719 140.347656 66.71875 141.320312 C 64.597656 142.054688 63.160156 143.15625 63.425781 143.835938 C 63.683594 144.5 64.199219 145.988281 64.574219 147.144531 C 65.242188 149.21875 65.226562 149.21875 63.671875 147.207031 C 62.800781 146.085938 62.089844 144.816406 62.089844 144.386719 C 62.089844 143.957031 59.375 144.566406 56.0625 145.746094 C 49.738281 147.992188 49.777344 147.917969 51.84375 153.710938 C 52.105469 154.433594 51.851562 155.027344 51.289062 155.027344 C 50.722656 155.027344 49.957031 153.574219 49.589844 151.800781 C 49.09375 149.421875 48.5 148.742188 47.332031 149.210938 C 30.355469 156.066406 9.484375 164.855469 8.949219 165.378906 C 8.5625 165.753906 22.488281 165.914062 39.890625 165.734375 C 62.976562 165.496094 71.738281 165.070312 72.292969 164.15625 C 72.847656 163.242188 73.050781 163.289062 73.0625 164.335938 C 73.074219 165.527344 79.3125 165.671875 110.285156 165.191406 C 130.75 164.871094 147.71875 164.566406 147.992188 164.507812 C 148.269531 164.449219 147.199219 163.664062 145.617188 162.761719 C 143.425781 161.511719 142.5625 161.421875 141.996094 162.390625 C 141.511719 163.214844 141.03125 163.28125 140.621094 162.582031 C 140.273438 161.992188 140.511719 161.328125 141.152344 161.101562 C 141.792969 160.878906 138.570312 158.460938 133.992188 155.730469 C 127.710938 151.988281 125.464844 151.097656 124.84375 152.109375 C 124.238281 153.097656 123.875 152.894531 123.46875 151.335938 C 123.136719 150.078125 119.550781 147.207031 114.59375 144.242188 C 105.988281 139.09375 104.867188 138.605469 105.292969 140.207031 C 105.535156 141.132812 105.082031 141.363281 103.027344 141.363281 C 102.472656 141.363281 101.160156 139.886719 100.117188 138.082031 C 98.449219 135.199219 93.453125 130.761719 92.054688 130.929688 C 91.78125 130.960938 90.515625 131.429688 89.242188 131.964844 M 291.589844 132.503906 C 289.234375 133.847656 289.019531 134.34375 290.035156 136.0625 C 290.949219 137.601562 290.949219 138.6875 290.023438 140.820312 C 288.441406 144.476562 286.542969 143.113281 287.035156 138.675781 L 287.421875 135.183594 L 282.636719 138.011719 C 279.429688 139.90625 277.84375 141.535156 277.832031 142.941406 C 277.820312 144.539062 277.609375 144.695312 276.949219 143.601562 C 275.855469 141.789062 277.308594 141.085938 256.558594 153.449219 L 238.925781 163.957031 L 247.148438 164.628906 C 261.710938 165.816406 289.832031 165.539062 289.832031 164.207031 C 289.832031 163.351562 290.171875 163.367188 291.03125 164.273438 C 291.855469 165.140625 296.816406 165.535156 306.867188 165.535156 L 321.507812 165.535156 L 324.796875 155.550781 L 324.28125 165.535156 L 349.261719 165.550781 C 363 165.558594 375.363281 165.859375 376.734375 166.21875 C 381.9375 167.578125 377.125 164.542969 369.242188 161.488281 C 364.847656 159.785156 355.632812 156.039062 348.765625 153.167969 C 341.898438 150.292969 329.089844 144.996094 320.300781 141.390625 C 311.507812 137.789062 303.558594 134.417969 302.636719 133.898438 C 301.28125 133.140625 300.875 133.519531 300.539062 135.847656 L 300.121094 138.738281 L 299.972656 135.820312 C 299.867188 133.738281 299.09375 132.613281 297.261719 131.878906 C 294.230469 130.671875 294.9375 130.59375 291.589844 132.503906 M 160.675781 141.050781 C 158.632812 141.605469 158.90625 143.859375 161.0625 144.246094 C 161.839844 144.386719 163.601562 143.570312 164.972656 142.429688 L 167.472656 140.359375 L 164.972656 140.457031 C 163.601562 140.511719 161.664062 140.78125 160.675781 141.050781 M 112.035156 151.289062 C 112.035156 152.121094 113.027344 153.539062 114.246094 154.433594 C 116.246094 155.90625 116.539062 155.90625 117.332031 154.417969 C 117.941406 153.269531 117.648438 152.324219 116.371094 151.304688 C 113.96875 149.390625 112.035156 149.382812 112.035156 151.289062 M 124.46875 177.652344 C 121.144531 178.417969 113.410156 180.753906 107.28125 182.835938 C 97.914062 186.023438 96.242188 186.914062 96.78125 188.429688 C 97.3125 189.917969 97.164062 190.007812 95.9375 188.960938 C 94.15625 187.441406 90.058594 188.34375 90.058594 190.253906 C 90.058594 191.078125 89.300781 191.402344 88.121094 191.078125 C 87.058594 190.785156 84.023438 191.3125 81.378906 192.246094 C 76.640625 193.925781 76.367188 194.28125 61.753906 217.523438 C 53.601562 230.492188 47.226562 241.605469 47.59375 242.222656 C 47.957031 242.84375 47.71875 243.222656 47.0625 243.0625 C 45.941406 242.789062 32.152344 262.765625 32.132812 264.691406 C 32.128906 265.1875 32.835938 265.304688 33.703125 264.953125 C 34.570312 264.605469 36.246094 265.027344 37.421875 265.894531 C 38.597656 266.761719 39.910156 267.46875 40.335938 267.46875 C 41.753906 267.46875 41.140625 265.09375 39.367188 263.714844 C 38.109375 262.742188 37.921875 262.03125 38.695312 261.207031 C 39.472656 260.371094 40.453125 260.617188 42.230469 262.089844 L 44.691406 264.125 L 50.144531 260.121094 C 53.144531 257.921875 55.484375 255.601562 55.347656 254.964844 C 55.210938 254.328125 55.980469 253.808594 57.054688 253.808594 C 58.132812 253.808594 67.007812 248.0625 76.785156 241.042969 C 113.339844 214.78125 143.679688 193.003906 149.203125 189.054688 C 152.339844 186.8125 154.925781 184.597656 154.949219 184.136719 C 155.011719 182.675781 149.746094 178.121094 147.214844 177.453125 C 145.792969 177.078125 144.480469 177.328125 144.050781 178.054688 C 143.515625 178.964844 142.980469 178.863281 142.039062 177.667969 C 140.460938 175.667969 133.089844 175.660156 124.46875 177.652344 M 240.679688 177.082031 C 237.113281 178.214844 231.898438 182.167969 231.90625 183.734375 C 231.914062 184.980469 237.796875 189.703125 239.34375 189.703125 C 239.796875 189.703125 240.667969 190.347656 241.277344 191.136719 C 243.175781 193.585938 277.796875 218.078125 279.363281 218.078125 C 280.175781 218.078125 280.859375 218.671875 280.875 219.390625 C 280.894531 220.175781 281.457031 219.941406 282.273438 218.8125 C 283.261719 217.4375 283.757812 217.289062 284.066406 218.269531 C 284.304688 219.011719 285.328125 217.265625 286.347656 214.382812 C 288.875 207.238281 290.402344 204.871094 291.152344 206.929688 C 291.464844 207.785156 291.183594 208.691406 290.527344 208.949219 C 289.871094 209.203125 290.570312 209.757812 292.082031 210.179688 C 294.46875 210.847656 294.828125 211.472656 294.828125 214.953125 C 294.828125 217.15625 295.078125 219.644531 295.382812 220.480469 C 295.734375 221.441406 295.15625 222.222656 293.824219 222.585938 C 292.464844 222.960938 291.820312 223.855469 292.019531 225.089844 C 292.40625 227.472656 295.8125 231.488281 297.824219 231.933594 C 298.648438 232.117188 299.625 232.707031 299.996094 233.25 C 300.390625 233.824219 301.398438 233.605469 302.429688 232.722656 C 304.007812 231.371094 304.121094 231.414062 303.507812 233.132812 C 302.769531 235.203125 303.75 236.582031 308.0625 239.550781 C 310.027344 240.902344 310.808594 241.054688 310.808594 240.09375 C 310.808594 239.351562 311.148438 239.101562 311.558594 239.535156 C 311.972656 239.96875 312.308594 240.855469 312.308594 241.507812 C 312.308594 242.160156 314.738281 244.484375 317.710938 246.667969 C 322.179688 249.953125 323.375 250.410156 324.640625 249.332031 C 325.917969 248.242188 326.0625 248.324219 325.519531 249.84375 C 325.042969 251.1875 325.976562 252.453125 329.078125 254.679688 C 331.390625 256.339844 333.910156 257.472656 334.671875 257.195312 C 335.433594 256.914062 335.785156 257.152344 335.453125 257.71875 C 334.890625 258.679688 362.535156 279.605469 363.304688 278.800781 C 363.492188 278.597656 362.253906 276.175781 360.546875 273.417969 C 358.230469 269.667969 357.207031 268.746094 356.507812 269.773438 C 355.828125 270.769531 355.730469 270.632812 356.148438 269.269531 C 356.824219 267.0625 348.972656 253.863281 346.960938 253.832031 C 346.242188 253.816406 345.917969 253.351562 346.246094 252.796875 C 346.863281 251.75 311.742188 195.710938 309.550781 194.238281 C 308.445312 193.496094 293.011719 187.601562 292.171875 187.601562 C 291.984375 187.601562 291.832031 188.253906 291.832031 189.050781 C 291.832031 189.847656 291.1875 191.058594 290.402344 191.746094 C 289.261719 192.742188 288.761719 192.570312 287.910156 190.898438 C 287.324219 189.746094 287.082031 188.152344 287.375 187.347656 C 287.765625 186.277344 284.914062 184.863281 276.632812 182.015625 C 259.773438 176.21875 248.34375 174.652344 240.679688 177.082031 M 169.96875 199.195312 C 173.289062 200.269531 213.730469 200.238281 216.914062 199.15625 C 218.308594 198.6875 207.910156 198.328125 193.441406 198.351562 C 179.15625 198.371094 168.59375 198.753906 169.96875 199.195312 M 168.375 201.429688 C 167.253906 203.335938 166.6875 226.757812 167.695312 229.515625 C 168.515625 231.75 169.054688 230.9375 172.785156 221.820312 C 177.273438 210.859375 177.8125 207.847656 175.460938 206.898438 C 174.636719 206.566406 173.964844 205.691406 173.964844 204.949219 C 173.964844 202.921875 169.242188 199.949219 168.375 201.429688 M 215.167969 202.019531 C 213.933594 202.902344 212.921875 204.511719 212.921875 205.597656 C 212.921875 206.683594 212.386719 207.453125 211.730469 207.308594 C 209.265625 206.761719 209.855469 211.273438 213.464844 220.5625 C 215.515625 225.84375 217.546875 230.574219 217.972656 231.078125 C 219.34375 232.683594 220.210938 222.25 219.566406 211.921875 C 219.222656 206.425781 218.597656 201.585938 218.179688 201.167969 C 217.757812 200.753906 216.402344 201.136719 215.167969 202.019531 M 179.421875 209.734375 C 178.707031 210.945312 178.550781 226.40625 179.242188 227.136719 C 179.925781 227.855469 183.953125 216.019531 183.953125 213.292969 C 183.953125 210.523438 180.535156 207.835938 179.421875 209.734375 M 203.90625 210.75 C 202.75 211.960938 202.03125 213.515625 202.300781 214.203125 C 202.570312 214.890625 203.582031 217.933594 204.542969 220.96875 C 205.503906 224.003906 206.660156 226.484375 207.109375 226.484375 C 208.265625 226.484375 208.128906 209.925781 206.964844 209.171875 C 206.433594 208.824219 205.058594 209.535156 203.90625 210.75 M 186.355469 217.160156 C 186.714844 219.542969 187.523438 222.496094 188.144531 223.71875 C 189.191406 225.773438 189.410156 225.539062 190.976562 220.699219 C 192.894531 214.785156 192.199219 212.824219 188.199219 212.824219 C 185.824219 212.824219 185.730469 213.050781 186.355469 217.160156 M 195.234375 213.660156 C 194.308594 214.28125 194.386719 215.734375 195.5625 219.960938 C 196.40625 222.984375 197.453125 225.222656 197.890625 224.9375 C 198.660156 224.4375 200.933594 216.214844 200.933594 213.933594 C 200.933594 212.65625 197.019531 212.46875 195.234375 213.660156 M 144.179688 226.148438 C 142.359375 227.09375 138.761719 229.816406 136.191406 232.199219 C 133.617188 234.582031 127.15625 240.21875 121.835938 244.71875 C 116.515625 249.222656 111.691406 253.5 111.117188 254.226562 C 110.003906 255.640625 95.789062 323.910156 96.285156 325.472656 C 96.445312 325.984375 105.335938 311.398438 116.042969 293.0625 C 150.152344 234.628906 151.976562 231.332031 150.6875 230.46875 C 149.875 229.925781 150.039062 229.664062 151.203125 229.652344 C 152.679688 229.640625 154.984375 226.792969 154.984375 224.976562 C 154.984375 223.695312 147.3125 224.527344 144.179688 226.148438 M 231.53125 225.699219 C 243.742188 247.066406 252.941406 262.242188 255.042969 264.476562 C 256.417969 265.9375 257.011719 266.015625 258.425781 264.925781 C 259.957031 263.75 260.011719 263.019531 258.917969 258.226562 C 258.242188 255.269531 258 251.378906 258.375 249.578125 C 258.945312 246.847656 258.722656 246.214844 257.035156 245.75 C 255.921875 245.445312 255.039062 244.414062 255.074219 243.460938 C 255.109375 242.503906 254.824219 240.777344 254.445312 239.621094 C 254.058594 238.464844 254.449219 238.789062 255.304688 240.335938 C 256.160156 241.886719 257.710938 243.4375 258.75 243.785156 C 262.300781 244.972656 268.835938 258.011719 265.878906 258.011719 C 264.019531 258.011719 264.828125 260.199219 267.746094 263.0625 C 269.332031 264.621094 271.644531 268.015625 272.878906 270.605469 C 275.085938 275.226562 275.148438 275.269531 276.058594 272.710938 C 276.566406 271.273438 276.726562 268.726562 276.414062 267.054688 C 276.097656 265.382812 276.332031 263.398438 276.925781 262.640625 C 277.523438 261.882812 277.703125 260.234375 277.320312 258.972656 C 276.847656 257.402344 276.394531 257.082031 275.878906 257.960938 C 275.320312 258.910156 274.980469 258.828125 274.546875 257.640625 C 274.226562 256.765625 274.5 255.855469 275.15625 255.621094 C 276.644531 255.097656 274.179688 251.605469 272.46875 251.816406 C 269.765625 252.152344 268.679688 251.605469 269.203125 250.167969 C 269.804688 248.523438 264.621094 243.902344 263.5 245.082031 C 263.152344 245.449219 262.863281 245.035156 262.863281 244.15625 C 262.863281 243.28125 260.359375 240.480469 257.296875 237.9375 C 254.234375 235.398438 250.609375 232.246094 249.242188 230.9375 C 245.21875 227.097656 239.273438 224.382812 234.875 224.382812 C 231.867188 224.382812 230.980469 224.730469 231.53125 225.699219 M 322.046875 227.179688 C 320.390625 227.882812 320.433594 232.789062 322.097656 232.789062 C 323.949219 232.789062 325.792969 230.589844 325.792969 228.378906 C 325.792969 226.523438 324.539062 226.125 322.046875 227.179688 M 308.308594 228.59375 C 307.519531 229.941406 309.902344 236.996094 311.152344 236.996094 C 312.339844 236.996094 314.730469 233.722656 314.773438 232.035156 C 314.792969 231.300781 314.140625 231.023438 313.246094 231.382812 C 312.207031 231.804688 311.503906 231.269531 311.132812 229.773438 C 310.539062 227.378906 309.320312 226.871094 308.308594 228.59375 M 250.3125 236.339844 C 250.65625 237.46875 250.300781 238.816406 249.488281 239.492188 C 248.476562 240.328125 248.320312 241.359375 248.941406 243.035156 C 250.234375 246.542969 252.1875 245.996094 251.667969 242.273438 C 251.425781 240.554688 251.617188 239.011719 252.085938 238.847656 C 252.558594 238.683594 252.21875 237.605469 251.328125 236.457031 C 249.835938 234.523438 249.761719 234.515625 250.3125 236.339844 M 165.441406 245.925781 C 165.757812 249.394531 166.683594 262.398438 167.5 274.824219 C 170.714844 323.882812 172.054688 334.433594 175.582031 338.4375 C 177.824219 340.984375 178.140625 341.03125 193.835938 341.03125 C 209.210938 341.03125 209.867188 340.941406 211.363281 338.695312 C 212.21875 337.410156 212.921875 336.847656 212.921875 337.441406 C 212.921875 338.039062 212.296875 339.425781 211.53125 340.523438 C 210.316406 342.273438 208.53125 342.566406 197.296875 342.882812 C 181.253906 343.328125 175.96875 342.421875 174.15625 338.902344 C 172.960938 336.582031 172.878906 337.066406 173.414062 343.382812 C 174.316406 353.972656 173.984375 353.628906 183.308594 353.738281 C 196.191406 353.886719 211.382812 353.503906 211.851562 353.011719 C 212.871094 351.945312 214.566406 336.828125 213.667969 336.828125 C 213.136719 336.828125 212.988281 336.050781 213.335938 335.101562 C 213.882812 333.601562 213.75 333.566406 212.300781 334.828125 C 210.101562 336.75 183.289062 337.578125 177.933594 335.890625 L 174.203125 334.714844 L 173.117188 322.898438 C 172.523438 316.398438 171.785156 304.933594 171.480469 297.417969 C 171.175781 289.90625 170.71875 280.210938 170.46875 275.875 C 169.890625 265.945312 171.476562 271.4375 172.515625 282.96875 C 173.191406 290.511719 174.335938 292.792969 175.152344 288.222656 C 175.382812 286.925781 175.042969 278.679688 174.402344 269.902344 C 173.351562 255.570312 172.945312 253.429688 170.445312 248.886719 C 165 238.992188 164.796875 238.871094 165.441406 245.925781 M 218.011719 245.445312 C 216.175781 248.878906 215.976562 249.992188 216.96875 251.25 C 217.972656 252.523438 217.917969 252.691406 216.660156 252.183594 C 215.8125 251.84375 214.773438 252.152344 214.351562 252.871094 C 213.230469 254.777344 211.003906 283.996094 211.65625 288.21875 C 212.457031 293.421875 213.589844 290.582031 214.417969 281.308594 C 215.421875 270.046875 217.117188 266.765625 216.410156 277.453125 C 216.105469 282.078125 215.410156 294.609375 214.863281 305.300781 C 213.617188 329.761719 212.164062 337.402344 212.746094 316.453125 C 213.0625 304.988281 212.878906 301 212.050781 301.539062 C 211.429688 301.941406 210.921875 302.765625 210.921875 303.371094 C 210.921875 303.972656 209.054688 308.554688 206.773438 313.554688 C 204.152344 319.300781 202.472656 321.964844 202.207031 320.800781 C 201.976562 319.789062 201.371094 318.960938 200.859375 318.960938 C 200.351562 318.960938 199.921875 319.789062 199.902344 320.800781 C 199.871094 322.519531 199.78125 322.515625 198.492188 320.726562 C 197.21875 318.957031 197.046875 318.945312 196.175781 320.582031 C 195.316406 322.199219 195.179688 322.183594 194.519531 320.390625 C 193.832031 318.523438 193.738281 318.519531 192.488281 320.304688 C 191.277344 322.035156 191.132812 322.042969 190.535156 320.410156 C 189.949219 318.792969 189.765625 318.816406 188.453125 320.640625 C 187.042969 322.597656 187.011719 322.59375 186.949219 320.539062 C 186.886719 318.472656 186.863281 318.46875 185.429688 320.460938 C 184.628906 321.574219 183.828125 322.285156 183.648438 322.039062 C 182.675781 320.699219 176.902344 306.992188 176.367188 304.753906 C 176.023438 303.308594 175.289062 301.835938 174.738281 301.476562 C 173.511719 300.679688 174.085938 330.351562 175.335938 332.441406 C 176.78125 334.847656 180.765625 330.011719 180.195312 326.542969 C 179.742188 323.773438 179.773438 323.753906 181.308594 325.792969 C 182.195312 326.972656 182.902344 327.320312 182.921875 326.582031 C 182.964844 324.859375 184.953125 324.867188 184.953125 326.589844 C 184.953125 327.546875 187.289062 327.90625 193.441406 327.902344 C 199.566406 327.898438 201.933594 327.527344 201.933594 326.582031 C 201.933594 325.859375 202.34375 325.265625 202.847656 325.265625 C 203.351562 325.265625 203.972656 325.859375 204.226562 326.582031 C 204.488281 327.320312 205.171875 326.628906 205.785156 325.003906 C 207.292969 321.019531 207.871094 321.382812 206.941406 325.726562 C 206.300781 328.714844 206.535156 329.683594 208.292969 331.324219 C 211.066406 333.910156 213.765625 333.1875 214.511719 329.65625 C 214.835938 328.109375 215.277344 326.132812 215.488281 325.265625 C 215.695312 324.402344 216.996094 307.375 218.375 287.4375 C 219.753906 267.496094 221.128906 248.933594 221.429688 246.1875 C 221.730469 243.445312 221.597656 241.199219 221.128906 241.199219 C 220.664062 241.199219 219.257812 243.109375 218.011719 245.445312 M 178.324219 255.648438 C 178.628906 258.390625 179.152344 264.257812 179.492188 268.679688 C 180.011719 275.445312 180.675781 277.675781 183.667969 282.707031 C 187 288.316406 187.417969 288.652344 190.300781 288.042969 C 193.191406 287.4375 193.257812 287.492188 191.410156 288.960938 C 188.058594 291.625 186.179688 290.851562 183.246094 285.597656 C 180.496094 280.671875 180.453125 280.644531 180.128906 283.628906 C 179.875 285.960938 180.648438 287.566406 183.503906 290.640625 C 187.199219 294.625 187.207031 294.628906 190.511719 292.972656 C 193.546875 291.449219 194.027344 291.457031 196.359375 293.066406 C 198.84375 294.777344 198.996094 294.730469 202.914062 291.003906 C 206.226562 287.859375 206.921875 286.523438 206.886719 283.375 L 206.847656 279.554688 L 205.265625 282.707031 C 203.265625 286.699219 199.910156 290.597656 198.511719 290.554688 C 197.921875 290.539062 196.625 289.871094 195.628906 289.078125 C 193.988281 287.769531 194.121094 287.652344 197.089844 287.800781 C 200.035156 287.945312 200.683594 287.394531 203.699219 282.183594 C 206.371094 277.5625 206.980469 275.503906 206.726562 271.9375 C 206.554688 269.484375 206.6875 267.355469 207.023438 267.207031 C 207.75 266.890625 208.984375 250.65625 208.277344 250.65625 C 207.425781 250.65625 199.554688 256.609375 196.6875 259.417969 C 194.1875 261.875 193.925781 262.847656 193.757812 270.308594 C 193.609375 276.828125 193.507812 277.324219 193.257812 272.722656 C 192.644531 261.414062 192.398438 260.871094 185.550781 255.578125 C 182.042969 252.871094 178.859375 250.65625 178.472656 250.65625 C 178.085938 250.65625 178.019531 252.902344 178.324219 255.648438 M 32.125 267.382812 C 30.542969 267.859375 29.730469 268.777344 29.917969 269.886719 C 30.089844 270.9375 29.691406 271.453125 28.917969 271.171875 C 27.773438 270.753906 22.566406 277.734375 23.382812 278.59375 C 23.5625 278.78125 27.222656 276.496094 31.511719 273.515625 C 37.867188 269.101562 38.972656 267.953125 37.46875 267.332031 C 35.273438 266.421875 35.304688 266.421875 32.125 267.382812 M 275.847656 280.570312 C 275.847656 280.835938 277.246094 282.730469 278.949219 284.773438 C 280.65625 286.816406 281.554688 288.488281 280.949219 288.488281 C 279.136719 288.488281 279.699219 291.484375 281.726562 292.625 C 283.390625 293.5625 283.585938 293.304688 283.445312 290.375 C 283.359375 288.554688 282.738281 286.875 282.066406 286.636719 C 281.394531 286.402344 280.84375 285.277344 280.84375 284.132812 C 280.84375 282.992188 280.390625 282.351562 279.839844 282.710938 C 279.285156 283.070312 278.5625 282.625 278.234375 281.722656 C 277.695312 280.25 275.847656 279.355469 275.847656 280.570312 "/>
<path style=" stroke:none;fill-rule:evenodd;fill:rgb(1.568628%,1.568628%,1.568628%);fill-opacity:1;" d="M -764.980469 214.925781 L -764.980469 782.398438 L 194.191406 782.136719 L 1153.363281 781.871094 L 1153.613281 214.664062 L 1153.863281 -352.546875 L -764.980469 -352.546875 L -764.980469 214.925781 M -764.484375 215.453125 C -764.484375 527.558594 -764.371094 655.085938 -764.230469 498.839844 C -764.089844 342.589844 -764.089844 87.230469 -764.230469 -68.632812 C -764.371094 -224.496094 -764.484375 -96.65625 -764.484375 215.453125 M 58.207031 24.917969 C 54.863281 28.667969 54.550781 29.492188 56.097656 30.496094 C 56.644531 30.855469 57.09375 32.277344 57.09375 33.660156 C 57.09375 35.042969 57.71875 36.550781 58.484375 37.011719 C 59.246094 37.476562 60.035156 38.800781 60.242188 39.957031 C 60.457031 41.171875 61.550781 42.199219 62.847656 42.394531 C 65.714844 42.824219 65.722656 41.070312 62.867188 38.964844 C 61.644531 38.066406 60.925781 37.328125 61.261719 37.328125 C 61.601562 37.328125 61.523438 35.671875 61.089844 33.648438 C 60.65625 31.628906 60.679688 28.210938 61.140625 26.0625 C 61.601562 23.910156 61.828125 21.988281 61.640625 21.792969 C 61.457031 21.597656 59.910156 23.003906 58.207031 24.917969 M 325.292969 29.390625 C 325.292969 35.617188 324.910156 37.566406 323.296875 39.476562 C 321.292969 41.847656 312.382812 46.527344 299.324219 52.058594 C 284.160156 58.484375 284.789062 58.066406 285.839844 60.976562 C 286.613281 63.117188 286.484375 63.601562 285.144531 63.601562 C 284.238281 63.601562 282.714844 62.855469 281.761719 61.945312 C 280.167969 60.425781 278.792969 60.789062 264.953125 66.363281 C 256.660156 69.703125 249.878906 72.785156 249.878906 73.214844 C 249.878906 74.503906 263.011719 89.871094 264.113281 89.871094 C 265.300781 89.871094 292.964844 72.71875 294.992188 70.726562 C 295.746094 69.984375 297.925781 68.460938 299.839844 67.34375 C 301.753906 66.222656 308.140625 62.011719 314.035156 57.984375 C 323.417969 51.574219 324.542969 50.503906 323.058594 49.363281 C 321.605469 48.242188 321.820312 48.117188 324.570312 48.453125 C 328.167969 48.894531 330.433594 46.308594 331.816406 40.191406 L 332.582031 36.804688 L 332.683594 39.832031 C 332.824219 44.015625 329.675781 48.917969 324.851562 52.027344 C 322.625 53.460938 320.800781 55 320.800781 55.441406 C 320.800781 55.882812 320.363281 56.242188 319.824219 56.242188 C 319.289062 56.242188 313.648438 59.828125 307.285156 64.210938 C 297.445312 70.992188 295.90625 72.414062 296.964844 73.757812 C 297.648438 74.625 298.269531 76.238281 298.347656 77.339844 C 298.476562 79.195312 298.257812 79.160156 295.398438 76.863281 L 292.308594 74.382812 L 282.332031 81.152344 C 276.84375 84.875 271.738281 88.289062 270.992188 88.742188 C 269.921875 89.386719 269.875 90.046875 270.777344 91.820312 C 272.15625 94.53125 271.101562 94.824219 269.285156 92.238281 C 268.300781 90.832031 267.710938 90.6875 266.8125 91.621094 C 265.90625 92.5625 266.253906 93.703125 268.308594 96.539062 L 270.984375 100.234375 L 277.386719 95.839844 C 280.90625 93.425781 288.40625 88.085938 294.050781 83.980469 C 302.71875 77.671875 304.273438 76.117188 304.035156 73.996094 C 303.78125 71.703125 303.875 71.640625 305.125 73.289062 C 306.378906 74.949219 307.300781 74.484375 316.390625 67.640625 C 335.242188 53.449219 336.78125 51.503906 336.78125 41.84375 C 336.78125 36.226562 333.628906 29.875 328.175781 24.511719 L 325.292969 21.675781 L 325.292969 29.390625 M 117.511719 35.582031 C 118.464844 37.109375 119.613281 38.121094 120.066406 37.828125 C 120.515625 37.535156 121.210938 37.847656 121.609375 38.523438 C 122.058594 39.292969 121.898438 39.472656 121.179688 39.003906 C 120.542969 38.59375 120.023438 38.507812 120.023438 38.820312 C 120.023438 39.128906 124.007812 46.128906 128.875 54.378906 L 137.726562 69.378906 L 146.355469 69.683594 C 151.101562 69.851562 154.984375 69.738281 154.984375 69.433594 C 154.984375 69.132812 153.101562 65.574219 150.800781 61.535156 C 146.902344 54.683594 145.664062 53.496094 132.574219 44.054688 C 116.378906 32.375 115.050781 31.628906 117.511719 35.582031 M 256.589844 42.578125 C 255.820312 43.726562 254.839844 44.320312 254.410156 43.890625 C 253.980469 43.460938 253.972656 44.285156 254.394531 45.726562 C 255.066406 48.023438 254.96875 48.175781 253.59375 46.976562 C 250.96875 44.6875 241.792969 51.886719 236.855469 60.105469 C 234.636719 63.804688 233.089844 67.28125 233.417969 67.839844 C 233.746094 68.398438 233.238281 68.855469 232.289062 68.855469 C 231.34375 68.855469 230.855469 69.160156 231.210938 69.53125 C 231.5625 69.90625 235.253906 70.378906 239.414062 70.585938 C 246.425781 70.933594 247.15625 70.765625 249.523438 68.269531 C 251.152344 66.558594 251.894531 64.84375 251.570312 63.542969 C 251.265625 62.3125 251.570312 61.5 252.324219 61.5 C 254.140625 61.5 261.074219 49.84375 260.542969 47.695312 C 260.238281 46.484375 260.546875 46.074219 261.480469 46.453125 C 263.304688 47.1875 263.234375 45.710938 261.308594 42.816406 C 259.390625 39.933594 258.382812 39.882812 256.589844 42.578125 M 163.921875 50.316406 C 164.414062 51.679688 167.582031 58.65625 170.964844 65.816406 C 176.578125 77.714844 176.835938 78.539062 173.921875 75.347656 C 170.84375 71.976562 170.519531 71.875 164.609375 72.390625 C 161.238281 72.683594 154.480469 72.953125 149.585938 72.992188 L 140.695312 73.058594 L 136.933594 77.339844 C 134.867188 79.699219 131.964844 83.460938 130.484375 85.707031 C 128.015625 89.460938 127.925781 89.929688 129.402344 91.484375 C 130.289062 92.414062 131.011719 93.574219 131.011719 94.058594 C 131.011719 94.546875 135.707031 97.761719 141.445312 101.203125 L 151.875 107.460938 L 154.546875 100.84375 L 157.222656 94.226562 L 154.933594 90.734375 L 152.648438 87.246094 L 158.601562 93.035156 L 174.023438 90.820312 C 185.292969 89.199219 191.910156 88.777344 198.597656 89.253906 C 205.507812 89.742188 207.875 89.574219 208.257812 88.574219 C 208.605469 87.664062 208.792969 87.753906 208.847656 88.855469 C 208.90625 90.097656 211.152344 90.746094 218.660156 91.683594 C 228.023438 92.855469 228.484375 92.816406 230.648438 90.679688 C 231.886719 89.457031 232.898438 88.953125 232.898438 89.558594 C 232.898438 90.167969 232.222656 91.253906 231.398438 91.972656 C 229.527344 93.605469 229.515625 95.035156 231.339844 98.90625 C 232.128906 100.582031 233.238281 103.25 233.804688 104.832031 L 234.835938 107.707031 L 247.441406 100 C 254.375 95.765625 260.054688 91.945312 260.066406 91.519531 C 260.082031 91.085938 257.273438 86.972656 253.828125 82.375 C 249.835938 77.039062 247.0625 74.214844 246.171875 74.574219 C 245.40625 74.882812 245.054688 74.667969 245.390625 74.097656 C 245.769531 73.449219 243.300781 73.058594 238.832031 73.058594 C 232.15625 73.058594 231.703125 73.203125 232.1875 75.160156 C 232.855469 77.839844 231.238281 77.933594 230.429688 75.261719 C 229.945312 73.648438 228.457031 73.117188 222.695312 72.507812 L 215.558594 71.757812 L 212.769531 75.296875 C 211.234375 77.246094 209.964844 78.480469 209.949219 78.042969 C 209.9375 77.605469 212.765625 71.457031 216.242188 64.382812 C 225.226562 46.078125 225.070312 47.382812 218.1875 48.367188 C 215.015625 48.824219 204.328125 49.324219 194.441406 49.484375 C 184.550781 49.644531 175.851562 49.8125 175.105469 49.859375 C 174.257812 49.910156 173.980469 50.628906 174.359375 51.777344 C 174.902344 53.417969 174.832031 53.4375 173.714844 51.960938 C 173.027344 51.050781 171.003906 50.265625 169.21875 50.21875 C 164.398438 50.089844 164.078125 49.75 167.972656 48.886719 L 171.46875 48.113281 L 167.246094 47.976562 C 163.207031 47.84375 163.0625 47.941406 163.921875 50.316406 M 235.132812 49.351562 C 233.886719 49.957031 233.085938 51.042969 233.351562 51.769531 C 233.617188 52.496094 233.472656 54.109375 233.035156 55.359375 L 232.238281 57.632812 L 230.59375 55.164062 L 228.953125 52.703125 L 226.433594 55.785156 C 223.796875 59.011719 223.578125 59.632812 223.839844 63.074219 C 223.957031 64.644531 223.769531 64.820312 223.089844 63.769531 C 222.402344 62.703125 221.667969 63.238281 220.046875 65.996094 C 218.875 67.992188 217.914062 69.8125 217.914062 70.035156 C 217.914062 70.257812 220.304688 70.582031 223.222656 70.75 L 228.53125 71.054688 L 233.359375 59.953125 C 236.015625 53.847656 238.007812 48.714844 237.789062 48.550781 C 237.570312 48.390625 236.375 48.75 235.132812 49.351562 M 149.273438 50.203125 C 149.546875 50.925781 151.679688 55.890625 154.015625 61.234375 L 158.265625 70.957031 L 163.617188 70.957031 C 166.5625 70.957031 168.960938 70.601562 168.949219 70.167969 C 168.878906 67.65625 159.28125 54.253906 155.777344 51.777344 C 151.464844 48.730469 148.441406 47.996094 149.273438 50.203125 M 85.0625 53.257812 C 85.0625 53.742188 83.941406 54.140625 82.566406 54.140625 C 81.101562 54.140625 80.171875 54.6875 80.320312 55.457031 C 80.464844 56.214844 79.617188 56.734375 78.320312 56.6875 C 76.875 56.632812 76.074219 57.214844 76.074219 58.324219 C 76.074219 59.582031 76.878906 59.984375 79.070312 59.824219 C 81.5625 59.640625 82.066406 60 82.066406 61.9375 C 82.066406 63.683594 83.882812 65.488281 89.308594 69.125 C 93.324219 71.820312 96.71875 73.476562 96.929688 72.851562 C 97.136719 72.226562 96.574219 71.285156 95.679688 70.757812 C 93.484375 69.464844 93.621094 67.804688 95.929688 67.804688 C 98.410156 67.804688 100.660156 70.519531 98.839844 71.320312 C 97.902344 71.730469 98.058594 72.21875 99.417969 73.121094 C 100.878906 74.085938 101 74.539062 99.96875 75.210938 C 99.046875 75.8125 99.53125 76.28125 101.597656 76.789062 C 103.214844 77.1875 105.117188 78.273438 105.816406 79.203125 C 106.957031 80.710938 110.066406 82.808594 119.367188 88.335938 C 120.925781 89.265625 122.777344 89.792969 123.480469 89.507812 C 124.867188 88.949219 137.457031 73.113281 136.867188 72.671875 C 136.667969 72.523438 126.390625 68.175781 114.03125 63.007812 C 92.050781 53.824219 85.0625 51.472656 85.0625 53.257812 M 329.109375 61.308594 C 326.566406 63.402344 320.089844 82.792969 321.738281 83.371094 C 323.5625 84.011719 322.890625 85.496094 321.011719 84.980469 C 319.722656 84.625 318.75 85.546875 317.503906 88.296875 C 315.964844 91.695312 315.9375 92.34375 317.261719 94.335938 C 318.683594 96.464844 318.96875 96.078125 323.726562 85.597656 C 327.945312 76.300781 332.621094 60.976562 331.570312 59.871094 C 331.398438 59.6875 330.292969 60.335938 329.109375 61.308594 M 70.082031 66.785156 C 70.082031 68.378906 83.890625 77.5 85.101562 76.710938 C 85.890625 76.199219 86.152344 76.433594 85.84375 77.378906 C 85.339844 78.917969 101.320312 90.835938 103.960938 90.894531 C 104.738281 90.910156 105.078125 91.234375 104.71875 91.613281 C 104.355469 91.992188 106.636719 94.085938 109.785156 96.261719 L 115.511719 100.222656 L 118.226562 96.886719 C 119.71875 95.050781 120.960938 93.257812 120.984375 92.902344 C 121.03125 92.152344 114.972656 87.824219 110.386719 85.332031 C 107.355469 83.683594 107.257812 83.695312 107.753906 85.695312 C 108.4375 88.445312 106.019531 88.425781 103.773438 85.667969 C 102.34375 83.910156 102.308594 83.566406 103.554688 83.566406 C 106.472656 83.566406 104.957031 81.382812 99.488281 77.703125 C 95.847656 75.25 92.839844 74.007812 90.75 74.085938 C 83.164062 74.378906 80.574219 73.960938 77.472656 71.941406 C 75.582031 70.714844 74.394531 69.207031 74.683594 68.410156 C 75 67.542969 74.230469 66.828125 72.636719 66.507812 C 71.230469 66.222656 70.082031 66.351562 70.082031 66.785156 M 69.210938 74.710938 C 69.464844 75.246094 70.152344 76.867188 70.738281 78.3125 C 71.324219 79.757812 72.570312 82.832031 73.511719 85.144531 C 76.910156 93.492188 85.292969 105.378906 88.769531 106.769531 C 90.09375 107.300781 90.925781 108.164062 90.617188 108.6875 C 90.050781 109.648438 98.8125 118.527344 102.214844 120.441406 C 103.707031 121.285156 104.042969 121.078125 104.042969 119.332031 C 104.042969 118.15625 104.496094 117.195312 105.046875 117.195312 C 105.625 117.195312 105.992188 114.453125 105.910156 110.71875 C 105.777344 104.558594 105.570312 104.039062 101.660156 100.214844 C 99.398438 98.003906 96.964844 96.417969 96.25 96.699219 C 95.535156 96.976562 95.183594 96.804688 95.472656 96.3125 C 96.136719 95.183594 80.070312 82.941406 78.4375 83.332031 C 77.769531 83.492188 76.96875 82.78125 76.65625 81.753906 C 76.347656 80.726562 74.4375 78.503906 72.417969 76.8125 C 70.398438 75.121094 68.957031 74.175781 69.210938 74.710938 M 312.605469 78.152344 C 310.019531 80.261719 307.882812 82.582031 307.859375 83.304688 C 307.835938 84.027344 307.121094 84.617188 306.273438 84.617188 C 305.425781 84.617188 302.207031 86.628906 299.125 89.082031 C 296.039062 91.539062 291.675781 94.882812 289.425781 96.511719 C 282.21875 101.730469 281.070312 103.6875 280.972656 110.925781 C 280.925781 114.496094 281.347656 118.320312 281.910156 119.425781 C 282.886719 121.347656 283.113281 121.300781 287.132812 118.378906 C 292.414062 114.535156 303.40625 102.503906 307.722656 95.835938 C 310.988281 90.800781 318.242188 75.261719 317.625 74.636719 C 317.449219 74.457031 315.1875 76.039062 312.605469 78.152344 M 60.09375 78.3125 C 60.09375 78.890625 60.570312 79.363281 61.15625 79.363281 C 61.792969 79.363281 61.949219 80.273438 61.542969 81.617188 C 60.964844 83.535156 61.183594 83.785156 62.988281 83.289062 C 64.480469 82.878906 65.441406 83.351562 66.214844 84.871094 C 67.140625 86.695312 67.058594 86.933594 65.703125 86.386719 C 63.546875 85.515625 63.667969 86.988281 66.183594 92.175781 C 67.628906 95.160156 68.523438 96.078125 69.066406 95.152344 C 69.503906 94.410156 70.359375 94.132812 70.96875 94.527344 C 72.847656 95.75 72.195312 92.503906 70.082031 90.113281 C 68.980469 88.875 68.082031 87.195312 68.082031 86.386719 C 68.082031 84.964844 61.8125 77.261719 60.660156 77.261719 C 60.347656 77.261719 60.09375 77.734375 60.09375 78.3125 M 173.964844 92.097656 C 170.394531 92.601562 165.945312 93.285156 164.082031 93.621094 L 160.6875 94.226562 L 163.640625 96.117188 C 168.152344 99.003906 173.722656 106.429688 175.425781 111.824219 C 177.675781 118.957031 180.226562 141.007812 179.574219 147.671875 C 179.265625 150.847656 178.332031 155.578125 177.503906 158.179688 C 176.5625 161.121094 176.175781 161.71875 176.472656 159.753906 C 176.734375 158.019531 177.234375 153.507812 177.582031 149.722656 C 178.167969 143.363281 178.023438 142.613281 175.652344 139.738281 C 173.300781 136.890625 172.957031 136.773438 171.46875 138.316406 C 169.96875 139.867188 170.007812 140.332031 171.992188 144.332031 C 173.902344 148.1875 174.019531 149.261719 173.054688 154 C 172.453125 156.933594 171.292969 160.707031 170.46875 162.382812 C 169.644531 164.058594 168.972656 166.046875 168.980469 166.796875 C 168.984375 167.546875 172.242188 170.175781 176.214844 172.636719 L 183.445312 177.109375 L 193.6875 176.964844 C 203.917969 176.820312 203.941406 176.8125 211.347656 172.179688 L 218.757812 167.535156 L 216.386719 162.070312 C 212.816406 153.847656 212.40625 149.003906 214.863281 144.03125 C 216.726562 140.253906 216.773438 139.714844 215.355469 138.25 C 213.945312 136.792969 213.539062 136.941406 211.230469 139.742188 C 208.835938 142.640625 208.707031 143.339844 209.292969 150.25 C 209.636719 154.320312 210.132812 159.070312 210.402344 160.804688 C 210.699219 162.730469 210.304688 162.117188 209.386719 159.230469 C 206.894531 151.394531 206.550781 140.882812 208.363281 128.042969 C 210.519531 112.777344 211.21875 110.40625 215.5 103.863281 C 218.011719 100.023438 218.886719 97.75 218.429688 96.234375 C 218.050781 94.976562 218.226562 94.074219 218.847656 94.074219 C 219.433594 94.074219 219.914062 94.785156 219.914062 95.652344 C 219.914062 97.613281 220.976562 97.652344 223.414062 95.777344 C 225.140625 94.449219 224.933594 94.269531 220.855469 93.609375 C 218.414062 93.210938 214.890625 92.613281 213.023438 92.285156 C 210.632812 91.859375 209.839844 92.035156 210.335938 92.878906 C 211.34375 94.59375 210.046875 94.355469 208.28125 92.5 C 207.457031 91.632812 205.503906 90.921875 203.9375 90.921875 C 200.492188 90.921875 200.417969 91.21875 198.933594 110.890625 C 197.566406 129.019531 193.960938 163.765625 193.382812 164.371094 C 193.140625 164.625 192.941406 164.152344 192.941406 163.316406 C 192.941406 162.484375 192.503906 158.03125 191.964844 153.421875 C 190.703125 142.574219 188.160156 116.628906 187.441406 107.210938 C 187.132812 103.164062 186.640625 97.84375 186.351562 95.390625 C 185.757812 90.335938 186.003906 90.402344 173.964844 92.097656 M 187.949219 92.585938 C 187.949219 97.25 192.167969 142.328125 192.855469 145.042969 C 193.644531 148.132812 193.671875 148.101562 194.316406 143.464844 C 195.007812 138.476562 198.9375 95.121094 198.9375 92.472656 C 198.9375 91.292969 197.617188 90.921875 193.441406 90.921875 C 189.09375 90.921875 187.949219 91.269531 187.949219 92.585938 M 120.777344 99.246094 L 117.109375 104.417969 L 121.3125 106.714844 C 138.46875 116.097656 172.988281 135.75 175.304688 137.457031 L 178.148438 139.546875 L 177.429688 132.3125 C 177.039062 128.332031 176.535156 124.75 176.316406 124.351562 C 175.738281 123.296875 153.25 110.59375 152.417969 110.851562 C 152.03125 110.96875 151.4375 110.644531 151.101562 110.121094 C 150.339844 108.941406 128.707031 95.5 126.25 94.675781 C 124.921875 94.234375 123.480469 95.433594 120.777344 99.246094 M 248.378906 101.589844 C 241.789062 105.671875 236.167969 109.320312 235.894531 109.6875 C 235.621094 110.058594 234.867188 110.46875 234.222656 110.597656 C 232.632812 110.917969 211.074219 123.441406 210.546875 124.351562 C 210.316406 124.75 209.796875 128.386719 209.394531 132.433594 C 208.683594 139.578125 208.714844 139.738281 210.542969 138.050781 C 211.574219 137.09375 215.117188 134.832031 218.414062 133.023438 C 221.710938 131.214844 225.082031 129.296875 225.90625 128.761719 C 226.730469 128.226562 236.519531 122.738281 247.65625 116.566406 C 258.792969 110.398438 268.160156 104.921875 268.46875 104.398438 C 269.132812 103.265625 262.804688 94.136719 261.367188 94.152344 C 260.816406 94.15625 254.972656 97.503906 248.378906 101.589844 M 156.09375 99.59375 C 152.445312 108.558594 151.945312 107.605469 164.117188 114.882812 C 170.210938 118.523438 175.449219 121.238281 175.757812 120.914062 C 176.644531 119.980469 172.941406 108.59375 170.621094 105.109375 C 167.757812 100.804688 161.132812 95.277344 158.695312 95.164062 C 158.265625 95.144531 157.09375 97.136719 156.09375 99.59375 M 221.65625 99.066406 C 219.695312 100.65625 216.960938 103.765625 215.585938 105.976562 C 213.109375 109.953125 210.210938 119.949219 211.222656 121.011719 C 211.605469 121.417969 231.476562 110.128906 233.683594 108.253906 C 233.839844 108.121094 233.078125 105.707031 231.988281 102.882812 C 230.898438 100.0625 229.984375 98.640625 229.957031 99.722656 C 229.910156 101.351562 229.640625 101.464844 228.402344 100.378906 C 227.578125 99.660156 226.90625 98.421875 226.90625 97.625 C 226.90625 95.492188 225.648438 95.835938 221.65625 99.066406 M 310.90625 99.414062 C 309.378906 101.589844 308.914062 103.273438 309.398438 104.875 C 309.972656 106.769531 309.84375 106.976562 308.707031 106.007812 C 307.59375 105.058594 305.960938 106.480469 300.570312 113.097656 C 296.863281 117.652344 293.820312 122.207031 293.8125 123.226562 C 293.800781 124.597656 293.585938 124.726562 292.976562 123.714844 C 292.316406 122.613281 291.917969 122.648438 290.941406 123.886719 C 289.953125 125.136719 290.101562 125.550781 291.742188 126.097656 C 292.847656 126.464844 294.570312 126.308594 295.566406 125.75 C 298.644531 124.015625 316.761719 101.273438 316.792969 99.105469 C 316.796875 98.691406 315.972656 97.886719 314.957031 97.3125 C 313.464844 96.472656 312.691406 96.875 310.90625 99.414062 M 73.078125 101.429688 C 73.078125 102.585938 73.527344 103.535156 74.078125 103.535156 C 74.625 103.535156 75.074219 104.382812 75.074219 105.425781 C 75.074219 107.90625 76.957031 109.820312 78.707031 109.113281 C 79.46875 108.804688 80.765625 109.136719 81.582031 109.851562 C 82.398438 110.5625 83.050781 110.734375 83.035156 110.230469 C 82.976562 108.585938 80.625 106.160156 77.820312 104.855469 C 76.132812 104.070312 75.074219 102.761719 75.074219 101.453125 C 75.074219 100.285156 74.625 99.328125 74.078125 99.328125 C 73.527344 99.328125 73.078125 100.277344 73.078125 101.429688 M 55.597656 108.511719 C 53.949219 108.765625 52.058594 109.445312 51.394531 110.023438 C 50.734375 110.597656 49.769531 110.796875 49.253906 110.460938 C 48.738281 110.125 46.585938 110.492188 44.464844 111.273438 C 42.347656 112.054688 38.476562 113.023438 35.871094 113.429688 C 33.261719 113.839844 31.125 114.671875 31.125 115.289062 C 31.125 115.964844 32.28125 116.164062 34.050781 115.789062 C 35.660156 115.453125 37.128906 115.648438 37.3125 116.230469 C 37.671875 117.363281 53.023438 121.828125 53.789062 121.023438 C 54.042969 120.757812 54.367188 119.695312 54.511719 118.660156 C 54.886719 115.953125 56.15625 115.867188 59.933594 118.292969 C 62.101562 119.683594 63.070312 120.980469 62.699219 122 C 62.132812 123.554688 62.746094 123.945312 69.582031 126.378906 C 71.230469 126.964844 73.476562 127.832031 74.574219 128.308594 C 75.886719 128.871094 75.023438 127.265625 72.078125 123.644531 C 69.605469 120.605469 66.96875 116.90625 66.222656 115.425781 C 65.1875 113.382812 64.65625 113.070312 64.03125 114.140625 C 63.421875 115.175781 62.925781 114.78125 62.148438 112.625 C 61.566406 111.015625 61.089844 109.257812 61.089844 108.71875 C 61.089844 107.71875 60.832031 107.707031 55.597656 108.511719 M 320.324219 115.71875 C 317.183594 120.109375 313.71875 124.640625 312.628906 125.789062 C 309.976562 128.578125 310.769531 129.101562 314.902344 127.292969 C 316.769531 126.472656 323.921875 124.265625 330.789062 122.386719 C 337.65625 120.503906 343.792969 118.300781 344.425781 117.492188 C 345.0625 116.679688 345.835938 116.457031 346.152344 116.992188 C 346.761719 118.035156 355.757812 116.292969 355.757812 115.128906 C 355.757812 114.507812 329.554688 107.730469 327.164062 107.734375 C 326.542969 107.734375 323.464844 111.328125 320.324219 115.71875 M 113.636719 115.824219 C 109.84375 120.722656 107.535156 122.566406 101.921875 125.1875 C 98.074219 126.980469 94.90625 128.847656 94.882812 129.335938 C 94.859375 129.820312 97.023438 131.46875 99.691406 132.992188 C 102.359375 134.519531 105.960938 136.671875 107.699219 137.777344 C 109.433594 138.882812 119.996094 145.175781 131.171875 151.761719 C 142.34375 158.34375 153.246094 164.960938 155.394531 166.46875 C 161.042969 170.425781 162.925781 175.546875 162.96875 187.078125 C 162.992188 192.773438 163.347656 195.96875 163.867188 195.109375 C 164.464844 194.117188 164.929688 194.035156 165.40625 194.847656 C 165.882812 195.652344 174.945312 196.011719 195 196.011719 L 223.90625 196.011719 L 223.90625 186.773438 C 223.90625 179.285156 224.332031 176.65625 226.15625 172.859375 C 228.605469 167.761719 227.730469 168.367188 260.867188 148.75 C 269.929688 143.382812 279.746094 137.515625 282.679688 135.710938 C 285.609375 133.90625 288.894531 131.902344 289.984375 131.25 C 292.902344 129.503906 292.089844 128.523438 285.179688 125.457031 C 279.140625 122.777344 268.855469 113.4375 268.855469 110.636719 C 268.855469 109.996094 267.734375 110.582031 266.359375 111.941406 C 264.324219 113.953125 263.863281 115.40625 263.863281 119.816406 C 263.863281 131.101562 257.722656 141.199219 247.972656 145.953125 C 245.324219 147.242188 243.40625 148.871094 243.46875 149.773438 C 243.53125 150.683594 243.402344 150.792969 243.160156 150.035156 C 242.90625 149.234375 240.90625 148.714844 238.070312 148.710938 C 235.5 148.703125 231.777344 148.417969 229.800781 148.070312 C 226.480469 147.496094 226.027344 147.742188 223.964844 151.25 C 222.734375 153.34375 221.324219 156.347656 220.832031 157.929688 C 220.035156 160.484375 219.992188 160.394531 220.460938 157.128906 C 220.753906 155.105469 221.070312 152.621094 221.164062 151.609375 C 221.261719 150.601562 221.871094 149.773438 222.515625 149.773438 C 224.5 149.773438 224.871094 146.902344 223.089844 145.355469 C 218.152344 141.070312 218.144531 141.066406 216.324219 143.992188 C 214.101562 147.5625 214.328125 152.976562 217.023438 160.570312 C 218.796875 165.574219 219.503906 166.53125 221.042969 166.015625 C 223.277344 165.269531 223.316406 165.625 221.515625 170.15625 C 220.546875 172.601562 218.4375 174.675781 214.527344 177.03125 C 211.445312 178.882812 208.925781 180.839844 208.925781 181.375 C 208.925781 182.894531 210.105469 182.542969 214.417969 179.75 C 216.617188 178.324219 218.976562 177.144531 219.664062 177.128906 C 222.867188 177.042969 220.105469 179.554688 211.109375 184.917969 C 201.511719 190.632812 201.140625 190.753906 193.441406 190.753906 C 185.742188 190.753906 185.375 190.632812 175.777344 184.917969 C 170.382812 181.703125 165.972656 178.628906 165.972656 178.085938 C 165.972656 176.515625 167.453125 176.902344 172.113281 179.710938 C 176.835938 182.550781 177.960938 182.867188 177.960938 181.375 C 177.960938 180.839844 175.4375 178.882812 172.359375 177.03125 C 168.445312 174.675781 166.339844 172.601562 165.367188 170.15625 C 163.578125 165.65625 163.613281 165.273438 165.730469 165.980469 C 167.128906 166.445312 167.949219 165.320312 169.726562 160.492188 C 172.433594 153.152344 172.621094 146.648438 170.21875 143.542969 L 168.46875 141.28125 L 161.648438 147.289062 L 163.796875 150.371094 C 164.980469 152.0625 166.183594 155.105469 166.476562 157.128906 L 167.011719 160.804688 L 165.539062 156.851562 C 162.429688 148.484375 161.96875 148.195312 151.71875 148.195312 C 140.992188 148.195312 137.179688 146.679688 130.847656 139.898438 C 125.304688 133.960938 123.945312 130.769531 123.128906 121.761719 C 122.609375 116.042969 121.886719 113.433594 120.390625 111.859375 L 118.363281 109.722656 L 113.636719 115.824219 M 88.582031 117.71875 C 90.707031 124.257812 91.359375 125.441406 93.117188 125.921875 C 94.179688 126.214844 95.316406 126.007812 95.636719 125.457031 C 96.394531 124.164062 94.210938 121.398438 92.433594 121.398438 C 91.675781 121.398438 91.058594 121.015625 91.058594 120.546875 C 91.058594 120.082031 90.347656 118.78125 89.476562 117.65625 C 87.917969 115.648438 87.90625 115.648438 88.582031 117.71875 M 138.753906 119.375 C 139.441406 120.140625 140.003906 121.804688 140.003906 123.070312 C 140.003906 124.339844 140.707031 125.660156 141.5625 126.007812 C 142.421875 126.355469 142.863281 127.082031 142.546875 127.625 C 142.226562 128.164062 142.535156 128.996094 143.234375 129.46875 C 144.613281 130.410156 157.976562 130.679688 157.980469 129.769531 C 157.980469 129.222656 140.898438 119.160156 138.640625 118.375 C 137.902344 118.121094 137.941406 118.46875 138.753906 119.375 M 238.140625 123.753906 C 233.0625 126.691406 228.902344 129.375 228.902344 129.714844 C 228.90625 130.054688 232.089844 130.332031 235.980469 130.332031 C 242.210938 130.332031 243.285156 130.035156 244.96875 127.847656 C 246.019531 126.484375 246.882812 124.332031 246.882812 123.066406 C 246.882812 121.804688 247.421875 120.199219 248.082031 119.507812 C 250.316406 117.152344 247.40625 118.398438 238.140625 123.753906 M 126.023438 122.582031 C 126.03125 128.589844 127.988281 133.972656 131.757812 138.363281 C 137.136719 144.625 142.21875 147.039062 150.15625 147.097656 C 153.816406 147.121094 157.140625 146.800781 157.539062 146.382812 C 158.953125 144.898438 155.941406 142.742188 150.753906 141.515625 C 147.863281 140.832031 143.140625 138.855469 140.257812 137.125 C 136.015625 134.570312 134.464844 132.816406 132.097656 127.886719 C 130.492188 124.539062 128.464844 121.175781 127.597656 120.417969 C 126.210938 119.207031 126.019531 119.472656 126.023438 122.582031 M 258.367188 121.5625 C 257.269531 122.917969 255.277344 126.3125 253.941406 129.105469 C 251.101562 135.035156 244.554688 139.578125 236.222656 141.402344 C 231.40625 142.453125 227.890625 144.851562 229.175781 146.207031 C 230.667969 147.773438 238.121094 147.75 243.320312 146.160156 C 253.734375 142.976562 261.621094 132.179688 260.683594 122.394531 L 260.367188 119.101562 L 258.367188 121.5625 M 89.242188 131.964844 C 87.410156 132.738281 87.070312 133.441406 87.625 135.316406 C 88.308594 137.632812 88.28125 137.644531 86.289062 135.773438 C 84.320312 133.925781 84.113281 133.929688 79.914062 135.882812 C 77.527344 136.996094 74.796875 138.191406 73.84375 138.542969 C 72.789062 138.933594 72.34375 139.816406 72.703125 140.800781 C 73.027344 141.6875 72.832031 142.414062 72.269531 142.414062 C 71.707031 142.414062 71.074219 141.875 70.863281 141.214844 C 70.582031 140.324219 69.511719 140.347656 66.71875 141.320312 C 64.597656 142.054688 63.160156 143.15625 63.425781 143.835938 C 63.683594 144.5 64.199219 145.988281 64.574219 147.144531 C 65.242188 149.21875 65.226562 149.21875 63.671875 147.207031 C 62.800781 146.085938 62.089844 144.816406 62.089844 144.386719 C 62.089844 143.957031 59.375 144.566406 56.0625 145.746094 C 49.738281 147.992188 49.777344 147.917969 51.84375 153.710938 C 52.105469 154.433594 51.851562 155.027344 51.289062 155.027344 C 50.722656 155.027344 49.957031 153.574219 49.589844 151.800781 C 49.09375 149.421875 48.5 148.742188 47.332031 149.210938 C 30.355469 156.066406 9.484375 164.855469 8.949219 165.378906 C 8.5625 165.753906 22.488281 165.914062 39.890625 165.734375 C 62.976562 165.496094 71.738281 165.070312 72.292969 164.15625 C 72.847656 163.242188 73.050781 163.289062 73.0625 164.335938 C 73.074219 165.527344 79.3125 165.671875 110.285156 165.191406 C 130.75 164.871094 147.71875 164.566406 147.992188 164.507812 C 148.269531 164.449219 147.199219 163.664062 145.617188 162.761719 C 143.425781 161.511719 142.5625 161.421875 141.996094 162.390625 C 141.511719 163.214844 141.03125 163.28125 140.621094 162.582031 C 140.273438 161.992188 140.511719 161.328125 141.152344 161.101562 C 141.792969 160.878906 138.570312 158.460938 133.992188 155.730469 C 127.710938 151.988281 125.464844 151.097656 124.84375 152.109375 C 124.238281 153.097656 123.875 152.894531 123.46875 151.335938 C 123.136719 150.078125 119.550781 147.207031 114.59375 144.242188 C 105.988281 139.09375 104.867188 138.605469 105.292969 140.207031 C 105.535156 141.132812 105.082031 141.363281 103.027344 141.363281 C 102.472656 141.363281 101.160156 139.886719 100.117188 138.082031 C 98.449219 135.199219 93.453125 130.761719 92.054688 130.929688 C 91.78125 130.960938 90.515625 131.429688 89.242188 131.964844 M 291.589844 132.503906 C 289.234375 133.847656 289.019531 134.34375 290.035156 136.0625 C 290.949219 137.601562 290.949219 138.6875 290.023438 140.820312 C 288.441406 144.476562 286.542969 143.113281 287.035156 138.675781 L 287.421875 135.183594 L 282.636719 138.011719 C 279.429688 139.90625 277.84375 141.535156 277.832031 142.941406 C 277.820312 144.539062 277.609375 144.695312 276.949219 143.601562 C 275.855469 141.789062 277.308594 141.085938 256.558594 153.449219 L 238.925781 163.957031 L 247.148438 164.628906 C 261.710938 165.816406 289.832031 165.539062 289.832031 164.207031 C 289.832031 163.351562 290.171875 163.367188 291.03125 164.273438 C 291.855469 165.140625 296.816406 165.535156 306.867188 165.535156 L 321.507812 165.535156 L 324.796875 155.550781 L 324.28125 165.535156 L 349.261719 165.550781 C 363 165.558594 375.363281 165.859375 376.734375 166.21875 C 381.9375 167.578125 377.125 164.542969 369.242188 161.488281 C 364.847656 159.785156 355.632812 156.039062 348.765625 153.167969 C 341.898438 150.292969 329.089844 144.996094 320.300781 141.390625 C 311.507812 137.789062 303.558594 134.417969 302.636719 133.898438 C 301.28125 133.140625 300.875 133.519531 300.539062 135.847656 L 300.121094 138.738281 L 299.972656 135.820312 C 299.867188 133.738281 299.09375 132.613281 297.261719 131.878906 C 294.230469 130.671875 294.9375 130.59375 291.589844 132.503906 M 160.675781 141.050781 C 158.632812 141.605469 158.90625 143.859375 161.0625 144.246094 C 161.839844 144.386719 163.601562 143.570312 164.972656 142.429688 L 167.472656 140.359375 L 164.972656 140.457031 C 163.601562 140.511719 161.664062 140.78125 160.675781 141.050781 M 112.035156 151.289062 C 112.035156 152.121094 113.027344 153.539062 114.246094 154.433594 C 116.246094 155.90625 116.539062 155.90625 117.332031 154.417969 C 117.941406 153.269531 117.648438 152.324219 116.371094 151.304688 C 113.96875 149.390625 112.035156 149.382812 112.035156 151.289062 M 124.46875 177.652344 C 121.144531 178.417969 113.410156 180.753906 107.28125 182.835938 C 97.914062 186.023438 96.242188 186.914062 96.78125 188.429688 C 97.3125 189.917969 97.164062 190.007812 95.9375 188.960938 C 94.15625 187.441406 90.058594 188.34375 90.058594 190.253906 C 90.058594 191.078125 89.300781 191.402344 88.121094 191.078125 C 87.058594 190.785156 84.023438 191.3125 81.378906 192.246094 C 76.640625 193.925781 76.367188 194.28125 61.753906 217.523438 C 53.601562 230.492188 47.226562 241.605469 47.59375 242.222656 C 47.957031 242.84375 47.71875 243.222656 47.0625 243.0625 C 45.941406 242.789062 32.152344 262.765625 32.132812 264.691406 C 32.128906 265.1875 32.835938 265.304688 33.703125 264.953125 C 34.570312 264.605469 36.246094 265.027344 37.421875 265.894531 C 38.597656 266.761719 39.910156 267.46875 40.335938 267.46875 C 41.753906 267.46875 41.140625 265.09375 39.367188 263.714844 C 38.109375 262.742188 37.921875 262.03125 38.695312 261.207031 C 39.472656 260.371094 40.453125 260.617188 42.230469 262.089844 L 44.691406 264.125 L 50.144531 260.121094 C 53.144531 257.921875 55.484375 255.601562 55.347656 254.964844 C 55.210938 254.328125 55.980469 253.808594 57.054688 253.808594 C 58.132812 253.808594 67.007812 248.0625 76.785156 241.042969 C 113.339844 214.78125 143.679688 193.003906 149.203125 189.054688 C 152.339844 186.8125 154.925781 184.597656 154.949219 184.136719 C 155.011719 182.675781 149.746094 178.121094 147.214844 177.453125 C 145.792969 177.078125 144.480469 177.328125 144.050781 178.054688 C 143.515625 178.964844 142.980469 178.863281 142.039062 177.667969 C 140.460938 175.667969 133.089844 175.660156 124.46875 177.652344 M 240.679688 177.082031 C 237.113281 178.214844 231.898438 182.167969 231.90625 183.734375 C 231.914062 184.980469 237.796875 189.703125 239.34375 189.703125 C 239.796875 189.703125 240.667969 190.347656 241.277344 191.136719 C 243.175781 193.585938 277.796875 218.078125 279.363281 218.078125 C 280.175781 218.078125 280.859375 218.671875 280.875 219.390625 C 280.894531 220.175781 281.457031 219.941406 282.273438 218.8125 C 283.261719 217.4375 283.757812 217.289062 284.066406 218.269531 C 284.304688 219.011719 285.328125 217.265625 286.347656 214.382812 C 288.875 207.238281 290.402344 204.871094 291.152344 206.929688 C 291.464844 207.785156 291.183594 208.691406 290.527344 208.949219 C 289.871094 209.203125 290.570312 209.757812 292.082031 210.179688 C 294.46875 210.847656 294.828125 211.472656 294.828125 214.953125 C 294.828125 217.15625 295.078125 219.644531 295.382812 220.480469 C 295.734375 221.441406 295.15625 222.222656 293.824219 222.585938 C 292.464844 222.960938 291.820312 223.855469 292.019531 225.089844 C 292.40625 227.472656 295.8125 231.488281 297.824219 231.933594 C 298.648438 232.117188 299.625 232.707031 299.996094 233.25 C 300.390625 233.824219 301.398438 233.605469 302.429688 232.722656 C 304.007812 231.371094 304.121094 231.414062 303.507812 233.132812 C 302.769531 235.203125 303.75 236.582031 308.0625 239.550781 C 310.027344 240.902344 310.808594 241.054688 310.808594 240.09375 C 310.808594 239.351562 311.148438 239.101562 311.558594 239.535156 C 311.972656 239.96875 312.308594 240.855469 312.308594 241.507812 C 312.308594 242.160156 314.738281 244.484375 317.710938 246.667969 C 322.179688 249.953125 323.375 250.410156 324.640625 249.332031 C 325.917969 248.242188 326.0625 248.324219 325.519531 249.84375 C 325.042969 251.1875 325.976562 252.453125 329.078125 254.679688 C 331.390625 256.339844 333.910156 257.472656 334.671875 257.195312 C 335.433594 256.914062 335.785156 257.152344 335.453125 257.71875 C 334.890625 258.679688 362.535156 279.605469 363.304688 278.800781 C 363.492188 278.597656 362.253906 276.175781 360.546875 273.417969 C 358.230469 269.667969 357.207031 268.746094 356.507812 269.773438 C 355.828125 270.769531 355.730469 270.632812 356.148438 269.269531 C 356.824219 267.0625 348.972656 253.863281 346.960938 253.832031 C 346.242188 253.816406 345.917969 253.351562 346.246094 252.796875 C 346.863281 251.75 311.742188 195.710938 309.550781 194.238281 C 308.445312 193.496094 293.011719 187.601562 292.171875 187.601562 C 291.984375 187.601562 291.832031 188.253906 291.832031 189.050781 C 291.832031 189.847656 291.1875 191.058594 290.402344 191.746094 C 289.261719 192.742188 288.761719 192.570312 287.910156 190.898438 C 287.324219 189.746094 287.082031 188.152344 287.375 187.347656 C 287.765625 186.277344 284.914062 184.863281 276.632812 182.015625 C 259.773438 176.21875 248.34375 174.652344 240.679688 177.082031 M 169.96875 199.195312 C 173.289062 200.269531 213.730469 200.238281 216.914062 199.15625 C 218.308594 198.6875 207.910156 198.328125 193.441406 198.351562 C 179.15625 198.371094 168.59375 198.753906 169.96875 199.195312 M 168.375 201.429688 C 167.253906 203.335938 166.6875 226.757812 167.695312 229.515625 C 168.515625 231.75 169.054688 230.9375 172.785156 221.820312 C 177.273438 210.859375 177.8125 207.847656 175.460938 206.898438 C 174.636719 206.566406 173.964844 205.691406 173.964844 204.949219 C 173.964844 202.921875 169.242188 199.949219 168.375 201.429688 M 215.167969 202.019531 C 213.933594 202.902344 212.921875 204.511719 212.921875 205.597656 C 212.921875 206.683594 212.386719 207.453125 211.730469 207.308594 C 209.265625 206.761719 209.855469 211.273438 213.464844 220.5625 C 215.515625 225.84375 217.546875 230.574219 217.972656 231.078125 C 219.34375 232.683594 220.210938 222.25 219.566406 211.921875 C 219.222656 206.425781 218.597656 201.585938 218.179688 201.167969 C 217.757812 200.753906 216.402344 201.136719 215.167969 202.019531 M 179.421875 209.734375 C 178.707031 210.945312 178.550781 226.40625 179.242188 227.136719 C 179.925781 227.855469 183.953125 216.019531 183.953125 213.292969 C 183.953125 210.523438 180.535156 207.835938 179.421875 209.734375 M 203.90625 210.75 C 202.75 211.960938 202.03125 213.515625 202.300781 214.203125 C 202.570312 214.890625 203.582031 217.933594 204.542969 220.96875 C 205.503906 224.003906 206.660156 226.484375 207.109375 226.484375 C 208.265625 226.484375 208.128906 209.925781 206.964844 209.171875 C 206.433594 208.824219 205.058594 209.535156 203.90625 210.75 M 186.355469 217.160156 C 186.714844 219.542969 187.523438 222.496094 188.144531 223.71875 C 189.191406 225.773438 189.410156 225.539062 190.976562 220.699219 C 192.894531 214.785156 192.199219 212.824219 188.199219 212.824219 C 185.824219 212.824219 185.730469 213.050781 186.355469 217.160156 M 195.234375 213.660156 C 194.308594 214.28125 194.386719 215.734375 195.5625 219.960938 C 196.40625 222.984375 197.453125 225.222656 197.890625 224.9375 C 198.660156 224.4375 200.933594 216.214844 200.933594 213.933594 C 200.933594 212.65625 197.019531 212.46875 195.234375 213.660156 M 144.179688 226.148438 C 142.359375 227.09375 138.761719 229.816406 136.191406 232.199219 C 133.617188 234.582031 127.15625 240.21875 121.835938 244.71875 C 116.515625 249.222656 111.691406 253.5 111.117188 254.226562 C 110.003906 255.640625 95.789062 323.910156 96.285156 325.472656 C 96.445312 325.984375 105.335938 311.398438 116.042969 293.0625 C 150.152344 234.628906 151.976562 231.332031 150.6875 230.46875 C 149.875 229.925781 150.039062 229.664062 151.203125 229.652344 C 152.679688 229.640625 154.984375 226.792969 154.984375 224.976562 C 154.984375 223.695312 147.3125 224.527344 144.179688 226.148438 M 231.53125 225.699219 C 243.742188 247.066406 252.941406 262.242188 255.042969 264.476562 C 256.417969 265.9375 257.011719 266.015625 258.425781 264.925781 C 259.957031 263.75 260.011719 263.019531 258.917969 258.226562 C 258.242188 255.269531 258 251.378906 258.375 249.578125 C 258.945312 246.847656 258.722656 246.214844 257.035156 245.75 C 255.921875 245.445312 255.039062 244.414062 255.074219 243.460938 C 255.109375 242.503906 254.824219 240.777344 254.445312 239.621094 C 254.058594 238.464844 254.449219 238.789062 255.304688 240.335938 C 256.160156 241.886719 257.710938 243.4375 258.75 243.785156 C 262.300781 244.972656 268.835938 258.011719 265.878906 258.011719 C 264.019531 258.011719 264.828125 260.199219 267.746094 263.0625 C 269.332031 264.621094 271.644531 268.015625 272.878906 270.605469 C 275.085938 275.226562 275.148438 275.269531 276.058594 272.710938 C 276.566406 271.273438 276.726562 268.726562 276.414062 267.054688 C 276.097656 265.382812 276.332031 263.398438 276.925781 262.640625 C 277.523438 261.882812 277.703125 260.234375 277.320312 258.972656 C 276.847656 257.402344 276.394531 257.082031 275.878906 257.960938 C 275.320312 258.910156 274.980469 258.828125 274.546875 257.640625 C 274.226562 256.765625 274.5 255.855469 275.15625 255.621094 C 276.644531 255.097656 274.179688 251.605469 272.46875 251.816406 C 269.765625 252.152344 268.679688 251.605469 269.203125 250.167969 C 269.804688 248.523438 264.621094 243.902344 263.5 245.082031 C 263.152344 245.449219 262.863281 245.035156 262.863281 244.15625 C 262.863281 243.28125 260.359375 240.480469 257.296875 237.9375 C 254.234375 235.398438 250.609375 232.246094 249.242188 230.9375 C 245.21875 227.097656 239.273438 224.382812 234.875 224.382812 C 231.867188 224.382812 230.980469 224.730469 231.53125 225.699219 M 322.046875 227.179688 C 320.390625 227.882812 320.433594 232.789062 322.097656 232.789062 C 323.949219 232.789062 325.792969 230.589844 325.792969 228.378906 C 325.792969 226.523438 324.539062 226.125 322.046875 227.179688 M 308.308594 228.59375 C 307.519531 229.941406 309.902344 236.996094 311.152344 236.996094 C 312.339844 236.996094 314.730469 233.722656 314.773438 232.035156 C 314.792969 231.300781 314.140625 231.023438 313.246094 231.382812 C 312.207031 231.804688 311.503906 231.269531 311.132812 229.773438 C 310.539062 227.378906 309.320312 226.871094 308.308594 228.59375 M 250.3125 236.339844 C 250.65625 237.46875 250.300781 238.816406 249.488281 239.492188 C 248.476562 240.328125 248.320312 241.359375 248.941406 243.035156 C 250.234375 246.542969 252.1875 245.996094 251.667969 242.273438 C 251.425781 240.554688 251.617188 239.011719 252.085938 238.847656 C 252.558594 238.683594 252.21875 237.605469 251.328125 236.457031 C 249.835938 234.523438 249.761719 234.515625 250.3125 236.339844 M 165.441406 245.925781 C 165.757812 249.394531 166.683594 262.398438 167.5 274.824219 C 170.714844 323.882812 172.054688 334.433594 175.582031 338.4375 C 177.824219 340.984375 178.140625 341.03125 193.835938 341.03125 C 209.210938 341.03125 209.867188 340.941406 211.363281 338.695312 C 212.21875 337.410156 212.921875 336.847656 212.921875 337.441406 C 212.921875 338.039062 212.296875 339.425781 211.53125 340.523438 C 210.316406 342.273438 208.53125 342.566406 197.296875 342.882812 C 181.253906 343.328125 175.96875 342.421875 174.15625 338.902344 C 172.960938 336.582031 172.878906 337.066406 173.414062 343.382812 C 174.316406 353.972656 173.984375 353.628906 183.308594 353.738281 C 196.191406 353.886719 211.382812 353.503906 211.851562 353.011719 C 212.871094 351.945312 214.566406 336.828125 213.667969 336.828125 C 213.136719 336.828125 212.988281 336.050781 213.335938 335.101562 C 213.882812 333.601562 213.75 333.566406 212.300781 334.828125 C 210.101562 336.75 183.289062 337.578125 177.933594 335.890625 L 174.203125 334.714844 L 173.117188 322.898438 C 172.523438 316.398438 171.785156 304.933594 171.480469 297.417969 C 171.175781 289.90625 170.71875 280.210938 170.46875 275.875 C 169.890625 265.945312 171.476562 271.4375 172.515625 282.96875 C 173.191406 290.511719 174.335938 292.792969 175.152344 288.222656 C 175.382812 286.925781 175.042969 278.679688 174.402344 269.902344 C 173.351562 255.570312 172.945312 253.429688 170.445312 248.886719 C 165 238.992188 164.796875 238.871094 165.441406 245.925781 M 218.011719 245.445312 C 216.175781 248.878906 215.976562 249.992188 216.96875 251.25 C 217.972656 252.523438 217.917969 252.691406 216.660156 252.183594 C 215.8125 251.84375 214.773438 252.152344 214.351562 252.871094 C 213.230469 254.777344 211.003906 283.996094 211.65625 288.21875 C 212.457031 293.421875 213.589844 290.582031 214.417969 281.308594 C 215.421875 270.046875 217.117188 266.765625 216.410156 277.453125 C 216.105469 282.078125 215.410156 294.609375 214.863281 305.300781 C 213.617188 329.761719 212.164062 337.402344 212.746094 316.453125 C 213.0625 304.988281 212.878906 301 212.050781 301.539062 C 211.429688 301.941406 210.921875 302.765625 210.921875 303.371094 C 210.921875 303.972656 209.054688 308.554688 206.773438 313.554688 C 204.152344 319.300781 202.472656 321.964844 202.207031 320.800781 C 201.976562 319.789062 201.371094 318.960938 200.859375 318.960938 C 200.351562 318.960938 199.921875 319.789062 199.902344 320.800781 C 199.871094 322.519531 199.78125 322.515625 198.492188 320.726562 C 197.21875 318.957031 197.046875 318.945312 196.175781 320.582031 C 195.316406 322.199219 195.179688 322.183594 194.519531 320.390625 C 193.832031 318.523438 193.738281 318.519531 192.488281 320.304688 C 191.277344 322.035156 191.132812 322.042969 190.535156 320.410156 C 189.949219 318.792969 189.765625 318.816406 188.453125 320.640625 C 187.042969 322.597656 187.011719 322.59375 186.949219 320.539062 C 186.886719 318.472656 186.863281 318.46875 185.429688 320.460938 C 184.628906 321.574219 183.828125 322.285156 183.648438 322.039062 C 182.675781 320.699219 176.902344 306.992188 176.367188 304.753906 C 176.023438 303.308594 175.289062 301.835938 174.738281 301.476562 C 173.511719 300.679688 174.085938 330.351562 175.335938 332.441406 C 176.78125 334.847656 180.765625 330.011719 180.195312 326.542969 C 179.742188 323.773438 179.773438 323.753906 181.308594 325.792969 C 182.195312 326.972656 182.902344 327.320312 182.921875 326.582031 C 182.964844 324.859375 184.953125 324.867188 184.953125 326.589844 C 184.953125 327.546875 187.289062 327.90625 193.441406 327.902344 C 199.566406 327.898438 201.933594 327.527344 201.933594 326.582031 C 201.933594 325.859375 202.34375 325.265625 202.847656 325.265625 C 203.351562 325.265625 203.972656 325.859375 204.226562 326.582031 C 204.488281 327.320312 205.171875 326.628906 205.785156 325.003906 C 207.292969 321.019531 207.871094 321.382812 206.941406 325.726562 C 206.300781 328.714844 206.535156 329.683594 208.292969 331.324219 C 211.066406 333.910156 213.765625 333.1875 214.511719 329.65625 C 214.835938 328.109375 215.277344 326.132812 215.488281 325.265625 C 215.695312 324.402344 216.996094 307.375 218.375 287.4375 C 219.753906 267.496094 221.128906 248.933594 221.429688 246.1875 C 221.730469 243.445312 221.597656 241.199219 221.128906 241.199219 C 220.664062 241.199219 219.257812 243.109375 218.011719 245.445312 M 178.324219 255.648438 C 178.628906 258.390625 179.152344 264.257812 179.492188 268.679688 C 180.011719 275.445312 180.675781 277.675781 183.667969 282.707031 C 187 288.316406 187.417969 288.652344 190.300781 288.042969 C 193.191406 287.4375 193.257812 287.492188 191.410156 288.960938 C 188.058594 291.625 186.179688 290.851562 183.246094 285.597656 C 180.496094 280.671875 180.453125 280.644531 180.128906 283.628906 C 179.875 285.960938 180.648438 287.566406 183.503906 290.640625 C 187.199219 294.625 187.207031 294.628906 190.511719 292.972656 C 193.546875 291.449219 194.027344 291.457031 196.359375 293.066406 C 198.84375 294.777344 198.996094 294.730469 202.914062 291.003906 C 206.226562 287.859375 206.921875 286.523438 206.886719 283.375 L 206.847656 279.554688 L 205.265625 282.707031 C 203.265625 286.699219 199.910156 290.597656 198.511719 290.554688 C 197.921875 290.539062 196.625 289.871094 195.628906 289.078125 C 193.988281 287.769531 194.121094 287.652344 197.089844 287.800781 C 200.035156 287.945312 200.683594 287.394531 203.699219 282.183594 C 206.371094 277.5625 206.980469 275.503906 206.726562 271.9375 C 206.554688 269.484375 206.6875 267.355469 207.023438 267.207031 C 207.75 266.890625 208.984375 250.65625 208.277344 250.65625 C 207.425781 250.65625 199.554688 256.609375 196.6875 259.417969 C 194.1875 261.875 193.925781 262.847656 193.757812 270.308594 C 193.609375 276.828125 193.507812 277.324219 193.257812 272.722656 C 192.644531 261.414062 192.398438 260.871094 185.550781 255.578125 C 182.042969 252.871094 178.859375 250.65625 178.472656 250.65625 C 178.085938 250.65625 178.019531 252.902344 178.324219 255.648438 M 32.125 267.382812 C 30.542969 267.859375 29.730469 268.777344 29.917969 269.886719 C 30.089844 270.9375 29.691406 271.453125 28.917969 271.171875 C 27.773438 270.753906 22.566406 277.734375 23.382812 278.59375 C 23.5625 278.78125 27.222656 276.496094 31.511719 273.515625 C 37.867188 269.101562 38.972656 267.953125 37.46875 267.332031 C 35.273438 266.421875 35.304688 266.421875 32.125 267.382812 M 275.847656 280.570312 C 275.847656 280.835938 277.246094 282.730469 278.949219 284.773438 C 280.65625 286.816406 281.554688 288.488281 280.949219 288.488281 C 279.136719 288.488281 279.699219 291.484375 281.726562 292.625 C 283.390625 293.5625 283.585938 293.304688 283.445312 290.375 C 283.359375 288.554688 282.738281 286.875 282.066406 286.636719 C 281.394531 286.402344 280.84375 285.277344 280.84375 284.132812 C 280.84375 282.992188 280.390625 282.351562 279.839844 282.710938 C 279.285156 283.070312 278.5625 282.625 278.234375 281.722656 C 277.695312 280.25 275.847656 279.355469 275.847656 280.570312 "/>
</g>
</svg>
